<svg
                                        xmlns="http://www.w3.org/2000/svg"
                                        fill="none"
                                        viewBox="0 0 89 85">
                                        <path
                                          fill="currentColor"
                                          d="M29.8373 41.345c0-5.1035-2.5613-9.6076-6.4676-12.2984-2.1421-1.1895-4.6067-1.8679-7.2307-1.8679-8.23903 0-14.9183 6.6815-14.9183 14.9233 0 5.1034 2.56134 9.6076 6.46761 12.2983 2.14209 1.1895 4.60669 1.8679 7.23069 1.8679 8.239 0 14.9183-6.6815 14.9183-14.9232Zm-25.99531.757c0-3.286 1.27908-6.3753 3.60195-8.6985 2.32286-2.3236 5.41066-3.6031 8.69556-3.6031 3.2849 0 6.3731 1.2795 8.6955 3.6031 2.3229 2.3237 3.602 5.4125 3.602 8.6985 0 3.2859-1.2791 6.3752-3.602 8.6984-2.3228 2.3236-5.4106 3.6031-8.6955 3.6031-3.2849 0-6.37315-1.2795-8.69556-3.6031-2.32287-2.3237-3.60195-5.4125-3.60195-8.6984Z">
                                        </path>
                                        <path
                                          fill="currentColor"
                                          d="M25.2835 30.311c.114.1073.2271.2159.3384.3272 1.3899 1.3903 2.4814 3.0097 3.244 4.8131.7894 1.867 1.1896 3.8498 1.1896 5.894s-.4002 4.0271-1.1896 5.8941c-.7622 1.8029-1.8537 3.4223-3.244 4.8131-1.3899 1.3904-3.0088 2.4822-4.8116 3.2451-1.8663.7897-3.8485 1.19-5.8921 1.19-1.8155 0-3.5828-.3167-5.2639-.9415 1.9609.9483 4.1602 1.4799 6.4844 1.4799 8.2391 0 14.9183-6.6815 14.9183-14.9232 0-4.7945-2.2611-9.0606-5.774-11.7909l.0005-.0009Z">
                                        </path>
                                        <path
                                          fill="currentColor"
                                          d="M14.9183 26.4219C6.67927 26.4219 0 33.1033 0 41.3451s6.67927 14.9233 14.9183 14.9233c8.2391 0 14.9183-6.6815 14.9183-14.9233s-6.6792-14.9232-14.9183-14.9232ZM87.7797 41.345c0-5.1035-2.5613-9.6076-6.4676-12.2984-2.1421-1.1895-4.6067-1.8679-7.2307-1.8679-8.239 0-14.9183 6.6815-14.9183 14.9233 0 5.1034 2.5613 9.6076 6.4676 12.2983 2.1421 1.1895 4.6067 1.8679 7.2307 1.8679 8.239 0 14.9183-6.6815 14.9183-14.9232Zm-25.9953.757c0-3.286 1.2791-6.3753 3.6019-8.6985 2.3229-2.3236 5.4107-3.6031 8.6956-3.6031 3.2849 0 6.3731 1.2795 8.6955 3.6031 2.3229 2.3237 3.6019 5.4125 3.6019 8.6985 0 3.2859-1.279 6.3752-3.6019 8.6984-2.3229 2.3236-5.4106 3.6031-8.6955 3.6031-3.2849 0-6.3732-1.2795-8.6956-3.6031-2.3228-2.3237-3.6019-5.4125-3.6019-8.6984Z">
                                        </path>
                                        <path
                                          fill="currentColor"
                                          d="M83.2259 30.311c.114.1073.2271.2159.3383.3272 1.3899 1.3903 2.4814 3.0097 3.2441 4.8131.7894 1.867 1.1896 3.8498 1.1896 5.894s-.4002 4.0271-1.1896 5.8941c-.7622 1.8029-1.8537 3.4223-3.2441 4.8131-1.3899 1.3904-3.0087 2.4822-4.8115 3.2451-1.8664.7897-3.8486 1.19-5.8921 1.19-1.8155 0-3.5829-.3167-5.2639-.9415 1.9608.9483 4.1602 1.4799 6.4844 1.4799 8.239 0 14.9183-6.6815 14.9183-14.9232 0-4.7945-2.2611-9.0606-5.774-11.7909l.0005-.0009Z">
                                        </path>
                                        <path
                                          fill="currentColor"
                                          d="M72.8607 26.4219c-8.239 0-14.9183 6.6814-14.9183 14.9232s6.6793 14.9233 14.9183 14.9233c8.2391 0 14.9183-6.6815 14.9183-14.9233s-6.6792-14.9232-14.9183-14.9232Z">
                                        </path>
                                        <g fill="currentColor"
                                          clip-path="url(#a-198239123120321)">
                                          <path
                                            d="M64.1256 18.6963c-.0242-.0322-.044-.0698-.0737-.0956-.0757-.0655-.0855-.1712-.1537-.2395-.0043-.0043-.0251.0077-.0259.0081-.0781-.1114-.1547-.2209-.2313-.3304-.0428-.061-.0858-.1217-.1276-.1835-.0164-.0244-.0256-.0546-.045-.0761-.0845-.0945-.1754-.1835-.2559-.2812-.0556-.0676-.1093-.1414-.1429-.2211-.0272-.0647-.1198-.0989-.1182-.1148.0099-.1007-.0758-.1366-.115-.2006-.0277-.0451-.0556-.1104-.1353-.0767-.0027.0011-.0228-.0392-.0257-.0682-.0423-.0532-.155-.0409-.1312-.1585.0019-.0096-.0212-.027-.0355-.037-.0327-.0223-.0742-.0358-.0999-.064-.2253-.2487-.4461-.5013-.6719-.7495-.1295-.1425-.2651-.2792-.3986-.4178-.0703-.0731-.1875-.093-.2299-.2014-.0032-.0081-.0609.0053-.0932.0086-.0022.0112-.0045.0224-.007.0337-.0819-.0758-.1638-.1519-.252-.2338.1289-.0181.1454.1972.3101.122l-.516-.2946c.0235-.0222.0391-.0372.0549-.0521-.0133-.0117-.0317-.036-.039-.0331-.12.0484-.1642-.0712-.235-.1158-.0952-.0601-.1638-.161-.2501-.2376-.0312-.0277-.0874-.0265-.1195-.0534-.4212-.3525-.8772-.6564-1.3342-.9589-.1594-.1056-.319-.211-.4816-.3114-.1987-.1225-.398-.2449-.6024-.3574-.186-.1025-.3794-.1916-.5494-.2767.0028-.0431.0118-.0728.0038-.0784-.0245-.0171-.0545-.0296-.0841-.0356-.0419-.0083-.0903.0015-.1278-.0147-.3903-.1711-.775-.3557-1.1693-.5171-.4782-.1958-.9609-.382-1.448-.5546-.3267-.1156-.6633-.2043-.9976-.2977-.3665-.1022-.7333-.2045-1.1039-.2906-.3028-.0702-.6107-.1184-.9169-.1731-.2835-.0507-.5668-.1038-.8519-.1436-.2704-.0379-.5427-.0614-.8145-.0887-.3012-.0303-.6022-.0665-.9043-.0833-.254-.0143-.5093-.0044-.7666.0119.0322.0028.0644.0069.0966.0081 1.7523.0643 3.476.315 5.1679.7792 1.3708.3761 2.6862.89 3.9446 1.5516 1.0307.5416 1.9993 1.176 2.9032 1.9102.189.1537.3874.2958.5754.4507.0818.0672.1483.153.2216.2307.0102.0108.0168.0255.0277.0351.1634.1411.3336.2754.4898.4241.1633.1556.3137.3249.4696.4879.0052.0054.0104.0109.0153.0163.2278.2475.4634.4888.6814.7448.2243.2632.432.5405.6459.8123.0207.0261.0348.0573.0654.1083-.0421-.0269-.0641-.041-.1133-.0725.0791.1546.1631.2553.291.3241.0552.0297.0978.0905.1343.1453.0459.0691.0799.1465.1328.2466-.0445-.0394-.0674-.0601-.0905-.0806l-.0168.0121c.0874.1515.1749.303.2445.4233l.2048.1169c-.0464.0099-.063.0134-.063.0134.0043.0472.0033.0929.0139.1358.009.0374.0245.0771.0485.1064.05.0611.1075.116.1833.1959-.0526-.0038-.0685-.005-.1068-.008.1231.1709.2427.3101.3256.4687.0232.0444.0633.1091.0616.1848-.0012.0622.0675.1256.1041.1891.0282.0489.0609.0961.0798.1485.014.0387-.0069.1039.0162.1231.0491.0408.0383.0839.051.1325.0223.086.0898.1615.1431.2381.0205.0297.0534.0506.1022.0948-.0451-.0079-.0623-.0109-.0854-.015.0069.0216.0136.0429.0275.0859-.1282-.1023-.2217-.2014-.2545-.3462-.0016-.0072-.0073-.0132-.0101-.0201-.0281-.0644-.0563-.1288-.0925-.2118-.0934-.0118-.1379-.0808-.1657-.2126-.0161-.0762-.0882-.141-.1366-.21-.0232-.033-.0553-.0604-.0741-.0956-.0906-.1691-.1689-.3453-.2697-.5079-.067-.1081-.1647-.1975-.2481-.2947-.0039.0137-.008.0287-.0122.0437-.0147.0031-.0291.006-.0438.009-.002-.038-.0062-.076-.0053-.1139.0005-.0218.0206-.0525.012-.0639-.0985-.1284-.2009-.2537-.3022-.3799-.0068-.0085-.0207-.017-.0202-.025.0057-.1028-.0615-.1438-.1353-.1991-.0809-.0607-.132-.1604-.1996-.2397-.0882-.1037-.1807-.2041-.2703-.3067-.0693-.0796-.1371-.1604-.2274-.2251.0468.0703.09.1433.1409.2106.1764.2325.357.4618.5325.6951.0221.0295.0182.0772.035.1122.0613.1286.1202.2588.1917.3818.0526.0906.1237.1702.1852.2557.0104.0145.0144.0334.0214.0504-.0068.0078-.0136.0156-.0206.0233-.0391-.0311-.0864-.0561-.1148-.0949-.0431-.0586-.0709-.1286-.109-.1911-.1015-.1668-.1976-.3376-.3095-.4971-.1234-.1754-.2618-.3405-.3948-.5089-.0131-.0166-.0353-.0259-.0533-.0385-.0084.0061-.0166.0123-.0249.0182.1154.1725.2308.3449.3463.5174-.0673-.0462-.1622-.0533-.1741-.163-.0044-.0413-.0928-.0679-.1285-.1127-.088-.1105-.1758-.2204-.2803-.3164-.017-.0154-.0167-.0483-.0283-.071-.0285-.0547-.0285-.1324-.1162-.1425-.0071-.0007-.0867-.035-.0195-.0795-.0119-.0133-.0226-.0277-.0358-.0396-.0936-.0862-.1882-.1714-.2813-.2584-.0501-.0468-.0996-.0947-.1465-.1449-.1621-.1734-.3213-.3497-.4849-.5219-.1187-.1249-.24-.2475-.366-.3651-.0426-.0399-.1025-.0609-.1472-.0864-.1379-.1162-.2959-.2118-.4015-.3483-.1108-.1432-.2637-.2128-.3896-.325-.0062.0066-.0124.0134-.0187.02.0281.0262.0563.0527.0845.0789-.0042.0046-.0083.009-.0127.0135-.0667-.0633-.1334-.1268-.2075-.1972.0018-.0044.0132-.0322.0211-.0511-.1652-.1115-.3483-.1928-.4712-.3285-.1539-.17-.3475-.2639-.5313-.381-.1527-.0973-.3027-.1983-.4723-.3094-.0004.0002-.0265.0145-.0523.0288-.0055-.0054-.0109-.0109-.0162-.0162.0132-.0182.0264-.0362.0317-.0437-.0871-.0571-.1724-.1185-.2632-.1701-.0638-.0364-.1411-.0501-.202-.0898-.1223-.0795-.2379-.1699-.3628-.2607.0213-.0091.0389-.0168.0785-.0339-.1639-.0512-.3103-.0971-.4727-.1477-.037-.0212-.0907-.0539-.1464-.0823-.0175-.009-.0541-.0002-.0593-.0107-.0668-.1344-.1687-.1769-.3301-.1092.0518.0007.0745.0022.0968.0009.0424-.0025.0672-.0118.0842.0553.0127.05.1043.0796.1607.1186.2218.1531.4771.2456.6941.4134.174.1347.3904.214.5866.3209.0292.0158.0504.0469.0729.0728.0132.015.0207.0352.0339.0502.0096.011.0242.0177.0366.0259.2001.1324.4253.2331.5459.4652l.0241-.0218c-.0126-.0207-.0248-.0415-.0374-.0622.0054-.0045.0106-.009.016-.0135.0224.0208.0443.0419.0672.0623.0438.0388.0911.0741.1309.1163.0256.0274.0409.0647.0415.1178l.6376.364c.0091.04.0052.096.0307.1191.0582.0525.1355.0836.1971.133.0718.0574.1353.1254.2028.1886.1133.106.2406.2005.3367.3204.1254.156.3.252.4333.3941.1192.1271.2202.2713.3369.4011.1288.1431.2697.275.3981.4185.0506.0567.076.1354.1232.1961.0367.0475.0879.0842.1348.123.11.0911.2062.1858.2382.3379.0166.0791.0769.1504.1243.2206.0092.0139.0498.0064.0765.0089.2681.3823.5878.7344.7593 1.1946.0095-.0333.0163-.058.023-.082.0398.0557.0755.106.1089.1529-.0861.0236-.024.0625.0031.0987.0325.0432.0652.0863.1134.1505-.0435-.0129-.0571-.0168-.1067-.0313.1727.1503.0857.3828.2875.5017-.1379.0442-.1483-.0512-.1784-.0948-.1097-.158-.2098-.3228-.3084-.4879-.0188-.0316-.0151-.0767-.023-.122-.0333-.0154-.0771-.0355-.1325-.0612.0256.0594.0507.1181.0831.1928-.004.0052-.0254.0244-.036.0485-.0057.0126.0017.0387.0127.0491.0097.0094.0324.0092.0487.007.0177-.0023.0346-.0116.052-.0178-.0054.0185-.0169.0376-.0147.0552.0037.0321.0148.0631.0243.0942.0501.1661.0991.3326.1526.4975.0097.0299.0405.0527.0587.0805.0201.0307.0647.0536.0103.1028-.0193.0176.0054.0834-.0041.1346-.0787-.1296-.1572-.2594-.236-.3891-.0076-.0127-.0249-.0311-.0214-.0372.0768-.1331-.0686-.1657-.1121-.242-.0325-.057-.1099-.0911-.1357-.1492-.0698-.1578-.1128-.3279-.2298-.4627-.0103-.0119-.0075-.035-.0142-.0715l-.0467.0819c-.0147-.0139-.0299-.0231-.0385-.0368-.0759-.1202-.15-.2418-.2268-.3615-.0109-.0169-.0323-.0362-.0503-.0379-.1447-.0129-.1563-.1217-.1859-.2308-.018-.0659-.0744-.1215-.1151-.1808-.0055-.0081-.0273-.0094-.0282-.0156-.0214-.1703-.1489-.118-.255-.1394-.0717-.0144-.1287-.102-.1636-.1677-.002-.0238.0044-.0536-.0076-.0703-.0667-.0942-.1382-.185-.2073-.2772-.1227-.1641-.244-.3295-.3685-.4925-.0477-.0624-.1064-.1164-.1528-.1798-.0336-.0457-.0441-.1128-.0844-.148-.0467-.041-.102-.0665-.1063-.1389-.0008-.0106-.0196-.0271-.0315-.0286-.1749-.0219-.2451-.1821-.3655-.2755-.0979-.0759-.1932-.1547-.3003-.2405-.0222.0985.0267.1319.0857.1591-.1025-.0128-.1762-.1051-.1568-.1992.0294.009.0588.018.0953.0292-.0891-.1413-.2063-.2326-.3557-.2823.0145-.0541-.0631-.2351-.1113-.2707-.0635-.0469-.124-.0983-.192-.1528l-.0306.0535c-.1078-.087-.2091-.1698-.3115-.2509-.1115-.088-.2269-.1713-.3353-.2629-.1102-.093-.2141-.1934-.3209-.2905.0073-.0082.015-.0166.0223-.0249.0825.0611.1649.1222.2471.1832.0086-.0128.0174-.0254.026-.0382-.1508-.0973-.3016-.1946-.4458-.2875-.0276.0263-.0472.0453-.0606.0579l-.4115-.2349c-.0098.0131-.02.0263-.0298.0394.0292.027.0555.0579.0877.0804.0938.0655.1912.1258.2848.1915.0795.0557.1476.1424.2352.1696.1592.0493.246.1833.3717.2699.0647.0445.1038.126.1678.1722.0478.0345.1032.0539.1537.0922.0845.0635.1548.1003.1998.2161.0429.11.1566.2136.3112.2128.0232-.0001.0673.029.0664.042-.0073.1001.0597.004.0773.0314-.0009.144.1156.2163.1903.3145.0299.0391.0518.0844.0849.1397.0341.0161.09.0428.1601.076-.0097-.0325-.0165-.0548-.0232-.0771.0278.0335.0627.0633.0821.1012.046.0899.0848.1835.1322.2877.006-.0046.0274-.0212.0543-.042.0868.1036.1615.2237.2652.3081.1106.0899.1668.2592.3495.257.0236-.0003.0477.0524.0557.098l-.1095-.0624c-.0033.0048-.0064.0095-.0097.0144.1219.1546.2441.3093.3732.4729.0661-.1122.1142-.0805.1563.0339-.0301-.0221-.049-.0363-.0732-.054-.07.1404.0549.2034.113.2885.0545.0797.1221.1503.1783.2289.0182.0257.0191.0642.0278.0967l-.0438.0249c-.0444-.0654-.0894-.1303-.133-.1963-.0139-.0211-.0202-.0478-.0364-.0667-.1077-.1268-.218-.2515-.3262-.378-.0966-.1131-.1924-.2271-.2862-.3425-.0065-.0081.0066-.0321.0107-.0492-.0794-.0628-.1674-.126-.2481-.1978-.0492-.0439-.0869-.1011-.1295-.1519-.001.0002.0177-.0065.0364-.0133-.0807-.006-.1123-.108-.2145-.0959-.0464.0054-.1045-.076-.1549-.1209-.0657-.0586-.1248-.1256-.1943-.179-.1291-.0995-.2683-.1857-.3946-.2882-.1858-.151-.367-.3083-.5437-.4702-.0613-.0563-.1033-.1341-.1479-.2053-.0167-.0215-.0314-.045-.0507-.0638-.0139-.0134-.0343-.0196-.0509-.0306-.0878-.0579-.1753-.1162-.2627-.1744-.0509-.0337-.1019-.067-.152-.1016-.1828-.1254-.3625-.2553-.549-.3747-.0817-.0524-.1767-.0843-.2662-.1242-.0089-.0041-.0216.0004-.0324.0007-.0014.0115-.0024.0228-.0037.0343-.1004-.0633-.2009-.1269-.3013-.1902.0044-.0077.0091-.0151.0137-.0226.0585.0384.1173.0768.1802.118-.0045-.1125-.3387-.3478-.5856-.4019.0243.0198.0482.0397.0725.0595-.004.0069-.008.0139-.0119.0208l-.3739-.2135c.0027-.007.0052-.0141.0079-.0212.0423.0083.0846.0169.1269.0252.0011-.0061.0024-.0124.0035-.0185-.1363-.0431-.2775-.075-.4077-.132-.13-.0568-.2491-.1383-.388-.1919.0284.0271.0569.0541.0899.0854-.0856-.0093-.084-.0103-.1261-.1021-.0058-.013-.0526-.0233-.0551-.0193-.0477.0775-.1305.0321-.1623.0147-.0681-.0368-.1165-.1097-.1723-.1685-.0311-.0328-.0559-.0748-.0926-.0987-.0368-.0238-.0849-.03-.1327-.0453-.0216.016-.0493.0363-.079.0583-.0574-.0572-.1078-.1499-.1663-.1552-.0807-.0073-.1074-.0769-.1737-.0908-.0717-.015-.1426-.0404-.2087-.0719-.0765-.0364-.1388-.1019-.2399-.0717-.02.006-.0599-.0555-.0908-.0864-.1553.0459-.2766-.0566-.4074-.1045-.0991-.0363-.1812-.1118-.3015-.0796-.0319.0085-.0749-.0262-.1131-.0402-.0623-.0228-.1261-.0415-.1862-.0691-.0189-.0087-.0277-.0392-.0413-.0599.0089-.0137.018-.0274.0269-.0411-.1466-.0138-.2933-.0274-.4397-.041 0-.006-.0001-.0118.0002-.0176.028-.0027.0561-.0056.0843-.0082.0015-.0099.0031-.0199.0045-.0297-.2328.0596-.4244-.0609-.6415-.1012-.0362.0093-.0869.0222-.1377.0352l.0041-.0007c-.0659-.0151-.1318-.0301-.1976-.045-.0014-.0039-.003-.008-.0045-.0117.0552-.0015.1103-.003.1656-.0045.001-.0059.0021-.0118.0028-.0176-.1706-.0426-.3414-.0853-.5121-.1278-.003.0112-.0064.0225-.0094.0338.0641.0177.1281.0352.1922.0529-.0025.0144-.0052.0287-.0076.0429l-.1587-.0057c.0005.0022.0011.0044.0018.0063-.1097-.0197-.22-.0365-.3288-.0601-.2336-.051-.467-.1037-.6991-.1608-.0335-.0082-.0568-.06-.0898-.0664-.1087-.021-.2195-.032-.3299-.0433-.0414-.0042-.0842.0016-.1307-.0234.0306-.013.0611-.026.1008-.0428-.0377-.0194-.0674-.0369-.099-.0503-.0503-.0214-.1057-.0845-.1402.0268-.0061.0194-.0944.0217-.1435.0173-.0909-.0082-.1808-.0289-.2715-.0414-.1595-.0222-.3188-.0445-.4788-.0616-.06-.0064-.1219.0071-.1821.0016-.1618-.0149-.3229-.0365-.4846-.0524-.0582-.0057-.1187-.0106-.1758-.0011-.083.0139-.1429-.007-.1949-.0733-.015-.0192-.0563-.0179-.0935-.0082.0159.014.0321.028.048.042-.0131.0107-.0273.0314-.0387.0301-.0327-.0041-.0758-.0074-.0939-.0289-.0507-.0599-.0463-.0634-.1503-.0632l.0817.0466-.0045.0279c-.1045-.0116-.2089-.0302-.3134-.0321-.0838-.0016-.1681.0248-.2521.025-.1431.0001-.2862-.0124-.4293-.0159-.0346-.0008-.07.0198-.1045.0188-.2076-.0055-.4151-.0221-.6226-.0197-.1719.0019-.3643-.0175-.5084.0531-.1098.0537-.1711-.0242-.2607-.0021-.1954.048-.3996.0601-.6002.0859-.0859.011-.1726.0169-.2582.0304-.1484.0236-.2953.0585-.4444.0742-.086.0091-.1753-.0177-.2625-.0145-.0644.0023-.128.027-.1949.0423.0024.0071.0077.0224.0156.0454-.0457-.0072-.0849-.0132-.1242-.0193-.0018.0045-.0035.0087-.0052.0132.0265.0117.0529.0237.0862.0386-.0131.0093-.0229.0209-.0286.0195-.0378-.011-.0743-.0261-.1122-.0376-.1736-.0523-.3253.0529-.4891.0688-.1036.0102-.2063.0431-.3141.0106-.0247-.0073-.0646.0359-.0936.0534-.0738.0192-.148.0415-.2237.0573-.0987.0206-.1992.0333-.2976.0552-.0357.0079-.0659.0395-.1015.0478-.1842.0424-.3682.0865-.5541.1194-.1781.0314-.3237.1341-.4803.2024-.0314-.0059-.0332-.141-.0912-.0112-.0219.0488-.1084.0784-.171.0972-.1099.0329-.2244.0507-.3355.0744.0004-.0048.0019-.0257.0049-.0659-.0765.0525-.1428.0978-.2016.1381-.0398-.0095-.0757-.0297-.105-.0226-.0783.0195-.1737.0306-.2252.0822-.0683.0681-.1508.0454-.2189.0801-.1306.0665-.2572.1409-.3868.2101-.0351.0189-.075.0291-.1106.047-.0051.0025.0005.0263.0005.0268-.0823.0242-.1795.0394-.2642.0804-.128.0623-.2456.146-.371.2139-.0535.029-.1191.0349-.1736.0625-.1568.0797-.3095.1679-.4665.2467-.0786.0393-.1665.0593-.2443.0996-.0557.0288-.0999.0786-.1515.1157-.0441.0317-.0929.0563-.1368.0882-.157.1141-.3128.2297-.4892.3277.0155-.0231.031-.0462.0556-.0828-.3172.165-.606.3408-.8034.6461-.0138-.0227-.0255-.0422-.0417-.0688-.0545.0749-.1051.1445-.1673.2303-.0009-.0475-.0014-.0748-.0024-.1245-.2926.2469-.5705.4814-.8811.7436-.0004-.0556-.0005-.0801-.0009-.124-.0242.0283-.0387.0455-.0535.0628-.1247.0548-.2048.1442-.2214.2837-.0842-.0107-.2026.0844-.2731.2393.0569-.0434.092-.0665.1227-.0945.0512-.0469.0996-.0972.149-.1464.0738-.0956.1476-.1907.2214-.2855.0299.1067-.0383.1707-.1044.2338-.0151.0142-.0537.014-.058.0279-.0606.1899-.2801.2273-.3712.392-.0349.063-.1198.0966-.1762.15-.0243.023-.0339.0617-.0505.093-.0083.0158-.0136.0411-.0261.0457-.0639.0227-.1265.0306-.1505.1191-.017.0628-.0784.1135-.1105.157-.0512-.0071-.0892-.0124-.1214-.0168.0304-.0424.0685-.095.1063-.1477-.0077-.0065-.0156-.0131-.0234-.0194-.0233.0254-.0444.0537-.0707.0756-.0558.0463-.1185.0853-.1707.1353-.0321.0308-.0446.0819-.0758.1142-.1189.1242-.235.2529-.3655.3642-.0929.0792-.2087.1313-.3119.199-.1099.0721-.2149.1514-.3265.2208-.0428.0268-.0972.0349-.1462.0516l-.0203-.0363c-.0936.1062-.1874.2122-.2871.3255.5895-.0327 1.1531-.0634 1.7167-.0958.4601-.0266.9197-.0586 1.3798-.0821.218-.0112.4368-.0076.6551-.0121.1899-.0039.3798-.0129.5699-.0143.2925-.0022.5849.0015.8774-.0002.1106-.0005.2231-.0233.3311-.0097.101.0127.2179-.0339.2881-.0014.0928.0429.1771.0284.2645.0401.0451.006.0931-.0009.1385-.009.3178-.0556.6406.0437.9313-.0395.0282.0338.0422.0648.057.0652.0582.0018.1177-.0006.1749-.0113.1308-.0244.2529-.0038.3768.0407.0478.0172.1075-.0015.1616.0021.0235.0015.046.0171.0691.0267-.0191.0112-.0389.0326-.0575.0316-.086-.0041-.1716-.0223-.2571-.0207-.1051.0021-.2095.0241-.3145.0284-.1908.0074-.3819.0093-.5729.0105-.0695.0003-.1401-.0169-.2086-.0097-.0495.0049-.0958.0528-.1446.0541-.3367.0097-.6734.0134-1.0102.0163-.0887.0008-.1774-.0075-.2769-.0123-.0003.0313-.0003.0609-.0003.0983-.066-.0005-.1321-.0011-.1983-.0015-.0018-.0059-.0034-.0118-.0051-.0179.0568-.0139.1136-.028.1703-.0418-.0055-.0177-.0108-.0353-.0161-.0532-.1013.0402-.2026.0803-.3099.1227-.0005-.0309-.0009-.0543-.0015-.0892-.0916.1309-.2124.0797-.3203.0809-.0759.0011-.1524-.0108-.2278-.0061-.1471.0094-.2935.0331-.4407.039-.2319.0092-.4641.004-.696.0133-.229.0093-.4577.0325-.6867.0416-.0528.0021-.1072-.0282-.1529-.0413-.0708.0199-.1441.0537-.2192.0594-.5433.0409-1.0871.0758-1.6308.1134-.2297.0159-.4591.0344-.6888.049-.0321.002-.0649-.0118-.0976-.0182.0052.0232.0102.0466.0156.0699.0271.0007.0547.0042.0815.0019 1.5876-.1415 3.1781-.2194 4.7717-.2319.188-.0015.3762-.011.5643-.0164.2011-.0058.4023-.0136.6036-.0156.2138-.0022.4279.0008.6419.0029.1989.002.3979.0049.5967.0104.0358.0009.1029-.0201.0713.063.0655-.0029.1383.0114.1951-.0126.1184-.0501.2203-.0748.3217.0335.0526.056.195.0294.2484-.0323.0113-.013.0307-.0192.0192-.0122.0601.0343.1032.0802.1455.0792.151-.0035.298.0906.4526.0157.0225-.0108.0619.0184.0941.0212.1035.0092.207.0147.3104.0218-.0066.0116-.0139.0243-.0084.0147.0472.0183.0919.0358.1369.0535-.0012.019-.0024.0378-.0035.057-.0504.0315-.0993.0548-.1316-.0586-.0208.0646-.0317.0987-.0473.1479-.027-.0105-.0769-.0322-.1287-.0483-.0234-.0073-.0539-.0115-.0753-.0027-.145.0589-.2926.0246-.4395.0197-.0561-.0019-.1248.0254-.2606.0913-.0118.0057-.0437-.0307-.0551-.0712l-1.0075.0947-.0126.0344c.0311.0105.062.0295.0933.0297.1343.0008.2687-.0096.4027-.0048.0777.0028.154.031.2318.0396.0947.0106.1904.0125.2857.0194.0462.0032.0923.0092.1384.014.003.0116.0056.0232.0086.0348-.0388.0153-.0814.0494-.1156.0426-.2184-.0449-.435-.0402-.6542-.0073-.067.0101-.1374-.0033-.208.0057.1003.0981.2388.0186.3528.1014-.0883.0164-.1767.0452-.265.0462-.1102.0013-.2162.0213-.3347-.0021-.149-.0295-.3148.0286-.4739.0431-.0522.0047-.1063-.0142-.1593-.0125-.1938.0063-.3893.0028-.5807.0297-.1401.0198-.2803.0804-.42.0546-.1123-.0206-.2074.0113-.3121.0379.0202.0065.0403.0131.0605.0196-.0012.0038-.0024.0073-.0035.0111-.0512-.0054-.1024-.0107-.1595-.0166-.0007-.0042-.0042-.0291-.0066-.0458-.3679.0275-.7217.0539-1.0923.0814 0 0-.0055.0216-.0098.0376-.0743-.0139-.1478-.0348-.2219-.0381-.0413-.0018-.0839.0379-.1261.038-.0839.0001-.1679-.0138-.2615-.023.0017-.0129.0044-.0344.0065-.0499-.1318.0394-.2656.0792-.3989.119-.0491-.0987-.1111-.0523-.1795.0048.0386.0124.0771.0357.1157.0354.3052-.0025.6102-.0089.9154-.0151.1502-.0031.3008-.0135.4508-.0095.055.0015.1089.0357.1843.0623-.0236-.0324-.0313-.043-.0386-.0529.0463-.0115.0929-.0231.1413-.0352.0783.1112.2769.1038.5196-.0275.0233.0723.0627.0865.1459.0753.122-.0164.2498.0168.3748.0156.1294-.0012.2589-.0192.3883-.0282.0904-.0064.1809-.0132.2714-.0135.1735-.0005.3468.0018.52.0071.0431.0015.0856.0188.1282.0298.014.0036.0323.0197.0397.0154.1311-.0795.2623-.0579.3899.0027.0645.0306.1127-.0146.1675-.0179.1512-.0088.3032-.0041.4548-.0036.081.0003.1624-.0013.2429.0064.0396.0039.077.0274.1191.0433.0227-.0229.0511-.0519.0828-.0842.0117.0223.0172.0504.0299.0537.0678.0184.1374.0301.2063.0455.0287.0065.0735.0085.082.0263.0274.058.0557.0539.1018.0246.0126-.0081.0408.0085.0619.0138-.0113.0198-.0211.056-.0337.0572-.1473.0125-.2948.0208-.4426.0261-.0141.0005-.0292-.0281-.0462-.0456-.0216.0225-.0435.0448-.0708.0731.0493.0337.1012.0692.1595.1093.1942-.0895.3472.1475.5364.0939.0316.038.0601.0725.0934.1129-.093.0056-.1896.0133-.2862.0153-.0187.0005-.0363-.0277-.0572-.0339-.0278-.0081-.0703-.0215-.0857-.0081-.1437.1243-.274.0093-.4096-.0151-.0337-.006-.077-.006-.1043.0104-.1208.0721-.2859.0002-.3919.1255-.0144.017-.0726.003-.1084-.0057-.0975-.0235-.1939-.0518-.2907-.0782-.0047.0109-.0092.022-.0139.0329.0135.0124.0268.0249.0436.0405-.0762.0521-.1535.1052-.2309.1579-.0024-.0151-.0046-.0304-.0071-.0456-.0365-.0175-.0717-.0459-.1098-.0505-.1804-.0227-.3616-.0391-.5422-.0577-.1079-.0112-.2162-.0202-.3237-.0356-.0213-.0031-.0394-.0301-.0632-.0494-.0872.1202-.2081.0673-.318.0716-.0348.0014-.0696.0109-.1041.0099-.0497-.0016-.0994-.0141-.149-.0136-.0794.0009-.1588.0086-.2384.0134l-.012.0555c.038.018.0743.0437.114.0523.0836.0181.169.03.2542.0371.0154.0012.0339-.0324.0599-.0594.0976.1118.2566.0748.4063.0789.1403.0039.287.0498.4061-.0915.0041.0128.0081.0252.0123.038-.0218.0182-.0438.0363-.0807.0672.3316.0329.6456.064.9596.0951-.0764.0596-.1543.091-.2465.0521-.028-.0118-.062-.021-.0911-.0169-.0529.0078-.1042.038-.1467-.0263-.0073-.0112-.0527-.0095-.072.0012-.1167.0652-.2356.0207-.3535.0116-.0099-.0007-.0175-.0297-.0105-.0169-.1136-.0079-.2132-.0227-.312-.0183-.0457.002-.0888.0442-.1353.0625-.0471.0189-.1022.0516-.1445.0412-.0803-.0198-.1451-.0227-.224.0159-.0701.0341-.1576.0415-.2378.0433-.1696.0037-.3394-.0025-.509-.0084-.0318-.001-.0626-.0225-.0949-.0282-.0622-.0111-.1254-.0259-.1881-.0247-.2313.0041-.4629.0101-.6938.0244-.064.0039-.1491-.0306-.1905.065-.006.0141-.0887.0108-.0888.0096-.0153-.1196-.1195-.0762-.1775-.0833-.0944-.0116-.1929.0109-.3158.0213l.0916.0523c-.0005.0072-.0013.0146-.0018.0218-.0776-.0024-.1642.0162-.23-.0128-.0674-.0296-.1216-.0197-.1555.0191-.0577.0666-.123.0558-.1798.0536-.0081-.0255-.0156-.0609-.0196-.0606-.0752.007-.156-.0278-.2236.0405-.0668.0676-.1766.067-.2386.0083-.0922-.0876-.1502-.0788-.1963.0024-.1291-.0089-.2434-.0243-.3572-.0222-.0745.0014-.1576-.05-.2275.0242-.0046.0049-.0472-.0259-.0695-.0095-.2286.0166-.457.033-.6799.0492-.1003-.1654-.1897.0232-.2905-.0009.0105-.0142.0205-.0282.0312-.0427-.0067-.002-.0173-.007-.0186-.0052-.0738.1024-.1877.0486-.281.0743-.045.0125-.0975-.0183-.1329.0618-.0251.0567-.0749-.0024-.0829-.0571-.1116.0046-.2218.0093-.3318.0138.0005.0109.001.0218.0015.0328.0208-.0009.0429-.0065.0622-.0017.024.0062.0457.0214.0684.0326-.0202.01-.0421.0178-.0604.0307-.0143.01-.0245.0261-.0327.0351-.1362.0067-.2782.0153-.4201.0198-.1135.0036-.2219.0058-.3337-.0489-.0611-.0299-.1579.011-.2381.0224-.0475.0069-.0945.0182-.1417.0277-.0025-.0093-.0047-.0186-.0073-.0278.032-.0155.064-.0311.1245-.0607-.105-.0184-.1819-.0319-.2685-.047.029.1543-.0901.1118-.148.125-.0877.02-.1823.0084-.2734.0164-.1136.01-.2263.0301-.3403.0383-.0571.0041-.1153-.0141-.1728-.0124-.0563.0017-.112.0175-.1682.0246-.0813.0105-.1624.0234-.2439.0276-.1554.0075-.3111.0069-.4665.0146-.0716.0035-.1427.018-.2182.0066.0573-.0577.169.05.1971-.0756-.0648.0039-.131.004-.1958.0143-.0208.0032-.0347.0376-.0565.0493-.0424.0229-.088.0397-.1325.059-.0053-.0108-.0108-.0217-.0159-.0327.0138-.0132.0277-.0263.0571-.0542-.0633-.0027-.112-.0047-.1937-.008l.0738.0422c.0012.0087.0024.0175.0036.0259-.1851.0209-.3698.0457-.555.0615-.1879.0162-.3766.0236-.5728.0353.109-.2327.214-.4594.3212-.6854.0462-.0973.1075-.1888.1416-.2899.0287-.0848.0283-.1796.0406-.2698.0014-.0101-.0018-.0241.004-.0302.1884-.2009.2193-.4745.3267-.7126.0698-.1551.1009-.3273.1577-.4887.0463-.1321.0765-.2881.1678-.3803.0675-.0682.0409-.1835.1453-.2245.0161-.0063.0546-.1115.0307-.1937-.0155-.053.0382-.1544.0909-.1929.1058-.0776.0754-.2049.1402-.2947.0423-.0587.0439-.1566.0953-.1966.0893-.0699.0484-.167.0862-.245.0632-.1307.1329-.2624.1672-.4019.0461-.1878.2164-.3346.1557-.5587.0435.01.0639.0149.0716.0167.0048-.0643.0002-.1322.017-.1943.0182-.0668.0562-.128.0884-.198.0186.0151.0359.0289.0642.0517.0005-.0669.001-.1187.0012-.1409.0443-.048.083-.0735.0978-.1089.0339-.0812.0388-.1707.0894-.2499.0335-.0523.0297-.1275.0492-.1902.0518-.1667.1073-.3322.1614-.4983.0588-.1803.1161-.3615.1776-.5407.014-.0409.0527-.0736.0642-.1146.0296-.106.052-.2139.0741-.3218.0232-.1128.0425-.2263.068-.3632.0235.0389.0332.0551.0444.0737.0954-.2036.1792-.4063.1212-.6416.0096-.001.0186-.0039.0271-.0024.0103.0014.0199.0064.0558.0191-.0314-.0691-.054-.1187-.0766-.1682-.0103.003-.0208.006-.0311.009l.0576-.1009c.0203.0391.0434.0832.0716.1378.1168-.2359.0583-.5008.2093-.7059.0188.01.0368.0202.0695.0389.023-.1708.0447-.332.0666-.4931-.0139-.002-.028-.0038-.0419-.0058-.0154.1248-.028.2501-.0478.3743-.005.0311-.0319.0586-.0489.0879.0059-.0125.0182-.026.0167-.0375-.0198-.1435.0111-.278.0401-.4189.0231-.1123.1244-.2205.0552-.3513-.0078-.0145.0276-.052.0471-.0861-.0025-.0521-.0057-.1178-.009-.1839.0057.0128.0112.0259.0167.0386.0341-.0003.0682-.0008.1023-.0011-.0055-.0234-.0111-.0469-.0168-.0701.0018.046.0037.0922.0055.1382l.0149-.0003c.0558-.1872.1014-.3784.1714-.5601.0437-.1136.1234-.2136.1896-.3182.0296-.0468.0625-.0922.0988-.1339.0266-.0307.0613-.0546.0923-.0816.0158.0082.0316.0165.0471.0248.0334-.1836.0669-.36722.1004-.55153.0046.00339.0193.01409.0334.02477.0043-.00482.0071-.0074.0093-.01031.0602-.07967-.0208-.21557.1204-.27273.0405-.01638.0432-.12032.069-.18146.0255-.06005.0578-.1175.0885-.17534.0081-.01562.0306-.02905.0302-.04301-.0031-.17045.1459-.20828.2338-.30211.0884.09518.1039.22488.053.31719-.0136.02472-.0285.05725-.0237.08237.0306.157-.0374.29071-.0869.43141-.0229.06514-.0038.14409-.0217.21214-.0481.18611-.1031.37071-.1604.55421-.0323.1034-.0834.2034-.0078.3243.0339-.0781.0653-.1499.0985-.2263.01.0221.0181.0402.0179.0396.1168-.1623.238-.3304.3589-.4986.0096.0024.0191.0047.0287.0071-.1138.4266-.1876.8588-.2232 1.2961.0119.0024.0239.0045.0358.0069.0701-.3137.1402-.6275.2123-.9502.0768.055.0967.0297.1965-.2291.033.0449.0707.0729.0734.1041.009.1007.0176.2044.0035.3036-.0523.3694-.0973.741-.1801 1.1038-.0309.1352-.0381.2595-.0314.3924.0044.0896.0079.1789-.0549.2626-.0662.0882-.1119.1819-.0769.3116.0213.0782-.0124.1881-.0559.2638-.1234.2152-.1742.4401-.1474.6846.0022.0207.007.0429.0021.0623-.0572.2271-.1193.4531-.1733.6809-.0627.2645-.1199.5305-.1776.7962-.0187.086-.0277.1741-.0471.2599-.0145.064-.0383.1258-.0831.1815.015-.0753.03-.1507.0448-.2262-.0134-.0029-.0268-.0059-.0403-.0087-.0667.2475-.131.4956-.2012.7422-.0574.2014-.1126.404-.1846.6002-.1367.3736-.2881.7419-.4268 1.1146-.1242.3335-.2434.669-.3573 1.0063-.0261.0776-.0217.1653-.0356.2852.2893-.1604.5769-.1181.8506-.1632.1516-.025.307-.0262.4591-.049.0445-.0065.0906-.0431.1242-.0775.1358-.1397.278-.2755.3972-.4289.1358-.1745.3474-.2892.4106-.5218.0119-.0441.0508-.0809.0967-.1503-.0489.0142-.094.0227-.0936.0276.0113.1369-.129.1618-.1833.2496-.0254.0408-.074.0674-.1192.1065.0082-.0321.0159-.0623.0191-.0753-.0892.0699-.1752.1754-.2849.2154-.1973.0719-.3046.2557-.4841.3427-.009.0045-.0206.0035-.0457.0074.4448-.5482.8814-1.0864 1.318-1.6243-.0064-.0094-.0125-.0186-.0189-.0279-.0274.0111-.0635.0149-.0809.0349-.3202.3644-.6383.7311-.9574 1.0968-.0066.0074-.0194.0094-.0403.0188.0123-.0353.0216-.0615.0343-.0974-.0174.0114-.0265.0156-.0335.0223-.098.0953-.1946.1918-.2948.2849-.0137.0127-.0594.0164-.064.0089-.0128-.0216-.025-.0598-.0145-.0769.1511-.2419.2975-.4879.4629-.7198.1564-.2195.3303-.4268.504-.6333.103-.1226.2251-.2288.3298-.3499.1724-.1991.3367-.4055.5064-.6069.0871-.1034.1565-.2204.2845-.2892.108-.0582.2032-.1413.2993-.2192.0326-.0266.0474-.0738.0757-.107.0471-.0553.0982-.1066.1479-.1596.0259-.0276.052-.0551.0784-.0823.0252-.0259.048-.055.0767-.0761.1839-.1353.3687-.2694.5539-.4028.1554-.1122.2821-.2495.3741-.4184.0048-.0084.0186-.0117.0278-.0182.2698-.1903.5421-.3768.8088-.5715.3902-.2847.7727-.5801 1.1656-.861.1856-.1326.3865-.244.5823-.362.0494-.0297.106-.0475.1711-.0478-.1106.0642-.2209.1283-.3316.1925.0057.011.0116.0219.0173.0329.0952-.0462.1914-.0905.2852-.1394.2419-.1259.4822-.2553.7245-.3807.2533-.1312.5049-.2664.7635-.3861.2014-.0932.4118-.1672.6197-.2463.2191-.0836.4371-.1717.6602-.2424.2818-.0891.5681-.1644.8535-.2424.4555-.1246.9095-.2565 1.3683-.368 2.4162-.58807 4.8621-.81818 7.3441-.60624.8906.076 1.7787.17344 2.6534.36044.524.1121 1.0446.2417 1.5628.3785.3769.0995.7551.2027 1.1187.3411.6116.233 1.2179.4824 1.8152.7497.4789.2141.9441.46 1.4102.7016.2591.1341.5156.2767.7595.4365.3648.2389.7194.4936 1.0745.7472.2581.1845.5144.3725.763.5695.2236.1772.4443.3599.6493.5578.1413.1362.2873.2674.4302.4017.1396.1315.3002.2471.4131.3986.1063.1425.2467.2393.3508.3372-.0032.0431-.014.0707-.0048.082.0959.1153.1888.2343.2952.3395.1134.1123.2439.207.3597.3171.0427.0405.0654.1023.0969.1543.0057.0095.0098.0202.0166.0287.1571.1999.3128.401.4722.5991.099.1231.2036.2413.3276.3874l-.0965-.0551c-.0041.0039-.0081.0078-.0122.0118.073.1035.1419.2107.2205.3098.0786.0992.1855.1784.2001.318.0015.0133.0123.0289.0234.0376.1006.0779.102.1982.1323.3062l.0029-.0009-.0024.0004Zm-1.7505.2977c-.0512-.0667-.1022-.1332-.1673-.2179-.0165.1613.0751.1907.1713.2165-.01.0174-.0325.0433-.0273.0515.0743.1175.1491.2348.2322.3461.0167.0226.0678.0195.1096.0299-.0633-.191-.177-.3193-.3182-.4262l-.0003.0001Zm-26.4398 1.7253c-.2733-.0633-.548.0538-.8237-.0917.0888-.0036.1533-.0062.2176-.0088-.1149-.0448-.2258-.0623-.3151.0405-.0115.0132-.0278.0278-.0437.0307-.1216.021-.2437.0394-.3656.0587.0013.0092.0021.0186.0033.0279.1126.0034.225.007.3372.01.0473.0013.0945.0014.1416.0021.1254.0017.2545-.014.3748.0113.0681.0144.1191.0191.1892.0079.0779-.0124.1785-.08.2592.0306.0198.0271.1115.0093.168-.0005.0349-.0061.0828-.0609.0958-.0519.0957.0669.0355-.0444.0696-.0419-.0004-.0103-.0006-.0208-.0009-.0311-.1044-.03-.2089-.0603-.3259-.0939.0083.0459.0117.0636.0182.1004l.0004-.0003Zm-5.4926-1.5079c-.4277.0403-.8381.0493-1.2331.1679.3982-.0365.7954-.0797 1.1927-.1245.0103-.0011.0188-.0194.0406-.0433l-.0002-.0001Zm8.2233 1.1529c.0012.0124.0025.0246.0038.037.0407-.0036.0816-.0103.1223-.0102.0949.0001.19.0063.2849.003.0225-.0009.0443-.0285.0663-.0439-.0182-.0182-.0334-.042-.0553-.0532-.0217-.0111-.0515-.0172-.0751-.0122-.1162.0241-.2316.0525-.3471.0794l.0002.0001Zm22.7038-2.1914c-.0169.0018-.0339.0035-.0508.0053.0049.0509-.0084.1179.0191.1489.0418.0473.1116.07.1698.1032.0039-.01.0081-.0201.0119-.0301-.05-.0756-.0999-.1514-.1499-.227l-.0001-.0003Zm.662.8036c.0072-.0076.0143-.015.0215-.0225-.0807-.1033-.1612-.2064-.2419-.3097-.008.0062-.016.0125-.0241.0185.0706.1128.105.253.2443.3136l.0002.0001Zm-29.9331-.854c-.0061-.0084-.0124-.0169-.0185-.0254-.1125.0211-.2517.1913-.2124.2429.076-.0717.1535-.1447.231-.2177l-.0001.0002Zm29.9146-.7181c-.072-.1794-.158-.2578-.2728-.2491.0904.0826.173.1581.2728.2491Zm-24.0111 3.2472c.0779.092.1496.105.2152.0392-.0771-.0141-.1462-.0268-.2152-.0392Zm23.9801-3.2083c.0941.0899.177.1687.2597.2476.0086-.0097.0172-.0193.026-.0291-.1122-.0464-.1091-.2237-.2857-.2185ZM37.6252 19.668c.0028.0109.0055.0221.0084.0331l.2564-.0472c-.0043-.0176-.0088-.0352-.0132-.0525-.0838.0223-.1679.0445-.2517.0668l.0001-.0002Zm.8207.928c.0011.0118.0022.0235.0031.0355.0802-.0085.1662.0795.262-.0438-.1031.0033-.1841.0056-.2653.0082l.0002.0001Zm12.4629-8.0232c.09.0179.182.0359.2741.0541-.1452-.0751-.2366-.0931-.2741-.0541Zm8.5068 1.2956.2374.1356c-.057-.1061-.1106-.1822-.2374-.1356Z">
                                          </path>
                                          <path
                                            d="M40.32 19.2492c.0013-.0191.0025-.0379.0035-.057.0147-.0148.0277-.039.0447-.0424.0455-.0088.0927-.0086.1617-.0136-.0051.0217-.0062.0837-.0231.0881-.0596.0164-.1156.0993-.1869.0248l.0001.0001Zm24.7107 2.54c.1416.1134.1513.2966.2154.4525-.1506-.1086-.0875-.3288-.2154-.4525Zm-2.0415-3.004c.0808.1091.1613.2176.2484.3352-.0941-.0163-.2383-.2096-.2574-.3289-.0004-.002.0083-.0056.0091-.006l-.0001-.0003Zm-21.9338.5398c.1365-.0936.2599-.0107.3741-.0492.0005.0164.0011.0331.0016.0495-.1163-.0001-.2325-.0002-.3757-.0003Zm-11.7023-7.0306c-.0026-.1101-.0054-.2203-.0079-.3304.0101-.0004.0202-.0009.0305-.0015.0069.1097.014.2195.0209.3292-.0145.0008-.0289.0017-.0434.0025l-.0001.0002Zm34.7696 6.403c.0587.066.1192.1304.1746.1989.0123.0154.0064.0452.0088.0682-.0215-.0115-.0526-.0178-.0626-.0357-.0428-.0756-.0791-.1548-.1178-.2325l-.0029.0009-.0001.0002Zm-.8713.5213c.0963.0755.1479.1843.1861.3033-.0706-.0928-.1413-.1854-.2121-.2783.0087-.0083.0173-.0166.0258-.0251l.0002.0001Zm-29.1351-2.431.1494-.2616c.0127.0036.0257.0073.0384.011-.0089.0383-.0063.0865-.0291.1133-.043.0503-.1004.0884-.1587.1373Zm17.6094-3.9217c.0904.0181.1806.036.271.0541-.0026.0144-.0048.0287-.0073.0432-.0979-.019-.1961-.038-.3197-.062.0364-.0219.0483-.0291.0601-.0361l-.0041.0008Z">
                                          </path>
                                        </g>
                                        <g fill="currentColor"
                                          clip-path="url(#b-198239123120321)">
                                          <path
                                            d="M27.5919 65.4926c.024.0324.0437.07.0732.096.0754.0659.0847.1716.1526.2402.0043.0043.0252-.0076.0259-.0079.0776.1117.1537.2216.2298.3315.0424.0612.0851.1221.1266.1841.0163.0245.0254.0548.0447.0763.084.0949.1744.1844.2545.2825.0553.0679.1086.1419.1418.2218.0269.0648.1194.0994.1177.1154-.0104.1005.0751.1369.114.201.0275.0454.055.1108.1349.0774.0027-.001.0226.0394.0254.0684.042.0534.1548.0416.1304.1591-.0019.0096.0211.0271.0353.0371.0326.0225.0741.0363.0997.0646.2241.2498.4436.5034.6682.7527.1288.1431.2637.2805.3965.4197.07.0735.1871.0939.229.2026.0031.008.0609-.005.0932-.0082.0023-.0112.0046-.0224.0072-.0337.0815.0762.163.1528.2509.235-.1291.0175-.1445-.1978-.3096-.1234l.5146.2971c-.0236.022-.0393.0369-.0551.0518.0132.0118.0314.0361.0388.0333.1203-.0478.1638.0719.2345.1169.0949.0605.1629.1618.2489.2388.031.0278.0872.0269.1192.054.4195.3545.874.6607 1.3295.9654.1589.1063.318.2125.4801.3136.1981.1235.3968.2469.6007.3604.1855.1034.3784.1935.548.2794-.003.0431-.0121.0728-.0041.0784.0244.0172.0543.0298.0839.0359.0419.0086.0903-.001.1277.0154.3895.173.7733.3594 1.1668.5228.4773.1981.959.3866 1.4453.5615.3261.1172.6623.2076.9961.3026.3661.104.7323.2081 1.1025.2959.3025.0717.6101.1214.916.1776.2834.052.5663.1065.8513.1477.2701.0393.5424.0641.814.0927.3011.0318.6018.0694.9039.0877.2539.0155.5093.0069.7666-.0082-.0321-.0029-.0643-.0072-.0965-.0086-1.752-.0728-3.4744-.3319-5.1641-.8042-1.3689-.3828-2.6818-.9031-3.937-1.5707-1.028-.5467-1.9936-1.1857-2.8939-1.9244-.1882-.1545-.3859-.2976-.5732-.4534-.0815-.0676-.1476-.1537-.2204-.2318-.0102-.0108-.0168-.0255-.0276-.0352-.1628-.1419-.3323-.277-.4878-.4265-.1625-.1563-.3121-.3264-.4672-.4902-.0052-.0053-.0103-.0109-.0152-.0163-.2266-.2487-.461-.4911-.6778-.7481-.223-.2643-.4293-.5426-.6419-.8155-.0206-.0262-.0345-.0574-.0649-.1085.0419.027.0639.0413.113.073-.0784-.155-.1619-.2561-.2895-.3256-.055-.0299-.0974-.0909-.1336-.1459-.0456-.0693-.0792-.1468-.1316-.2472.0443.0396.0672.0604.0902.081l.0168-.012c-.0867-.1519-.1734-.3038-.2425-.4245l-.2042-.1179c.0465-.0096.063-.0131.063-.0131-.004-.0472-.0028-.0929-.0132-.1358-.0088-.0375-.0241-.0773-.0479-.1067-.0498-.0613-.107-.1165-.1824-.1968.0526.0041.0685.0054.1068.0085-.1223-.1714-.2412-.3112-.3233-.4702-.023-.0445-.0628-.1094-.0608-.1851.0016-.0622-.0668-.1259-.1032-.1897-.0279-.0489-.0604-.0963-.079-.1488-.0139-.0387.0073-.1039-.0156-.1231-.049-.0411-.0379-.0842-.0504-.1328-.0219-.0861-.089-.1619-.1419-.2389-.0203-.0297-.0532-.0507-.1017-.0952.045.0081.0622.0112.0853.0154-.0068-.0216-.0135-.0429-.0271-.086.1277.1029.2207.2025.2528.3474.0016.0072.0072.0133.01.0201.0278.0646.0556.1291.0914.2123.0934.0122.1375.0815.1647.2134.0158.0763.0875.1415.1356.2106.023.0331.055.0607.0737.096.0897.1696.1671.3462.2672.5092.0664.1085.1638.1983.2466.2959.004-.0136.0082-.0286.0125-.0436.0147-.003.0291-.0059.0439-.0088.0017.038.0058.076.0047.114-.0006.0218-.0209.0523-.0124.0637.0979.129.1997.2547.3004.3814.0068.0086.0206.0171.0201.0252-.0062.1027.0608.144.1343.1997.0806.0611.1312.161.1984.2407.0878.1041.1798.2049.2689.3079.0689.0799.1363.1611.2262.2263-.0464-.0706-.0893-.1438-.1398-.2113-.1753-.2334-.3548-.4636-.5291-.6977-.022-.0296-.0179-.0773-.0345-.1124-.0607-.1289-.1189-.2594-.1898-.3827-.0522-.0909-.1229-.1708-.184-.2566-.0103-.0146-.0143-.0335-.0211-.0505.0068-.0078.0137-.0155.0207-.0232.0389.0313.0861.0565.1143.0955.0428.0588.0703.1289.1081.1916.1006.1673.196.3385.3071.4986.1225.176.2601.3417.3923.5108.013.0166.0352.0261.0531.0387.0084-.006.0167-.0122.025-.0181l-.3438-.519c.0671.0466.1619.0541.1733.1639.0042.0413.0925.0683.128.1132.0874.111.1747.2213.2788.3179.0168.0154.0163.0482.0279.0711.0282.0548.0278.1325.1155.143.0071.0007.0865.0354.0191.0796.0118.0133.0225.0278.0356.0398.0931.0866.1874.1723.2801.2597.0499.047.0991.0953.1457.1456.1613.1742.3196.3513.4824.5243.1181.1255.2388.2486.3642.3669.0424.0401.1023.0614.1468.0871.1374.1168.2949.2132.3998.3502.1101.1438.2627.2141.3881.3269.0061-.0066.0124-.0134.0188-.0199-.0281-.0263-.0561-.0529-.0841-.0793.0042-.0046.0083-.009.0127-.0135.0664.0636.1328.1275.2065.1982-.0018.0045-.0134.0322-.0214.051.1648.1123.3474.1946.4697.3308.1531.1708.3462.2656.5294.3836.1522.0981.3017.1998.4708.3117.0005-.0002.0266-.0144.0525-.0286.0054.0055.0108.011.0161.0163-.0134.0181-.0266.0361-.032.0436.0869.0575.1719.1193.2624.1713.0637.0368.1409.0509.2016.0909.122.08.2371.171.3615.2624-.0213.009-.0389.0166-.0787.0335.1637.052.3099.0986.472.15.0369.0213.0905.0543.146.083.0175.009.0542.0005.0593.011.0662.1347.1678.1777.3296.1108-.0518-.0009-.0745-.0026-.0968-.0014-.0425.0023-.0673.0115-.0839-.0557-.0126-.05-.104-.0801-.1602-.1193-.221-.1542-.4759-.2479-.692-.4168-.1735-.1356-.3894-.2159-.5852-.3237-.029-.016-.05-.0472-.0725-.0732-.0131-.0151-.0205-.0353-.0336-.0504-.0096-.011-.0241-.0178-.0365-.026-.1995-.1334-.4241-.2353-.5436-.4679l-.0243.0217c.0125.0208.0247.0416.0372.0624-.0054.0044-.0107.0089-.0161.0134-.0223-.021-.0441-.0422-.0669-.0626-.0436-.039-.0908-.0746-.1303-.117-.0255-.0275-.0406-.0649-.041-.118l-.6358-.3671c-.0089-.04-.0047-.096-.0301-.1192-.058-.0528-.1351-.0843-.1964-.134-.0716-.0578-.1347-.126-.2019-.1895-.1129-.1066-.2397-.2017-.3352-.322-.1246-.1567-.2988-.2536-.4313-.3963-.1187-.1277-.219-.2723-.335-.4027-.1281-.1437-.2684-.2763-.396-.4204-.0504-.057-.0755-.1358-.1223-.1967-.0365-.0477-.0875-.0847-.1342-.1236-.1096-.0917-.2053-.1868-.2366-.3391-.0163-.0792-.0762-.1508-.1232-.2213-.0092-.0138-.0498-.0066-.0765-.0092-.2663-.3836-.5842-.7373-.7535-1.1983-.0096.0333-.0165.0579-.0233.0819-.0396-.0559-.075-.1064-.1082-.1534.0862-.0232.0242-.0624-.0027-.0987-.0322-.0434-.0647-.0867-.1127-.1511.0435.0131.0571.0171.1066.0318-.172-.1511-.0838-.3832-.285-.5031.1381-.0435.148.0519.1779.0958.1089.1585.2082.3237.306.4893.0187.0317.0148.0768.0224.1222.0332.0155.077.0358.1323.0617-.0253-.0594-.0502-.1183-.0822-.1931.004-.0052.0255-.0244.0363-.0484.0057-.0126-.0016-.0387-.0125-.0491-.0097-.0095-.0324-.0093-.0487-.0073-.0177.0023-.0347.0115-.0521.0176.0055-.0184.0171-.0376.015-.0552-.0036-.032-.0146-.0631-.0239-.0943-.0492-.1663-.0974-.333-.1502-.4982-.0095-.03-.0402-.0529-.0582-.0808-.02-.0308-.0645-.0539-.0099-.1029.0195-.0174-.0049-.0833.0048-.1345.078.13.1559.2602.2341.3903.0075.0126.0247.0311.0212.0372-.0774.1328.0678.1661.1109.2425.0323.0573.1095.0917.135.1499.069.1582.1112.3285.2275.4639.0103.0119.0074.035.0139.0716l.0471-.0817c.0146.0139.0298.0232.0383.0369.0753.1206.1489.2426.2251.3627.0108.0169.0321.0362.0501.038.1446.0137.1557.1225.1848.2318.0176.0659.0738.1219.1142.1814.0054.0081.0273.0095.0281.0157.0206.1703.1483.1187.2544.1406.0716.0148.1281.1026.1627.1685.0019.0237-.0046.0536.0073.0704.0662.0945.1373.1855.2059.2781.122.1647.2424.3307.3661.4943.0474.0626.1059.1169.1519.1805.0334.0459.0436.113.0838.1485.0465.0411.1016.067.1056.1394.0007.0105.0195.0271.0313.0287.1748.0228.2443.1833.3642.2773.0975.0763.1925.1557.2991.242.0227-.0984-.0261-.1321-.0849-.1595.1024.0132.1757.1059.1558.1999-.0294-.0091-.0587-.0183-.0951-.0296.0884.1417.2051.2336.3543.284-.0148.054.0619.2354.1099.2712.0634.0472.1236.0989.1914.1537l.0308-.0534c.1074.0876.2083.1708.3103.2524.111.0886.2261.1725.334.2645.1097.0936.2131.1945.3195.2921-.0074.0083-.0151.0166-.0224.0248-.0822-.0615-.1643-.123-.2463-.1843-.0086.0127-.0175.0253-.0261.038.1503.098.3007.196.4444.2897.0277-.0262.0474-.0451.0609-.0576l.4103.2369c.0099-.0131.0201-.0262.03-.0392-.0291-.0273-.0552-.0582-.0874-.081-.0934-.0659-.1905-.1266-.2838-.1928-.0792-.0561-.1469-.1431-.2343-.1707-.159-.0501-.2451-.1845-.3705-.2717-.0645-.0448-.1032-.1266-.1669-.173-.0476-.0348-.1029-.0545-.1533-.093-.0841-.0639-.1543-.101-.1987-.2171-.0423-.1102-.1555-.2143-.3102-.2143-.0231 0-.0671-.0293-.0661-.0423.0077-.1-.0598-.0043-.0772-.0318.0016-.1439-.1146-.2168-.1888-.3154-.0297-.0393-.0514-.0846-.0842-.1401-.0341-.0162-.0898-.0432-.1597-.0768.0095.0326.0162.0549.0228.0773-.0277-.0337-.0624-.0637-.0816-.1016-.0456-.0902-.0839-.1839-.1308-.2884-.006.0046-.0275.0211-.0545.0417-.0863-.104-.1604-.2244-.2637-.3093-.1102-.0905-.1656-.2601-.3483-.2587-.0236.0002-.0474-.0527-.0552-.0983l.1092.063c.0033-.0049.0065-.0096.0098-.0144-.1212-.1552-.2426-.3105-.3709-.4748-.0667.1119-.1147.0801-.1562-.0346.0301.0223.0489.0365.073.0544.0707-.1401-.054-.2037-.1116-.2891-.0541-.08-.1214-.1509-.1772-.2297-.0181-.0259-.0188-.0643-.0274-.0969.0147-.0082.0293-.0164.044-.0246.0441.0656.0887.1307.132.1968.0138.0213.0199.048.0361.067.1071.1273.2167.2526.3243.3796.0961.1135.1914.228.2846.3438.0065.0082-.0068.0321-.011.0492.0792.0631.1668.1268.2472.199.049.0442.0864.1015.1288.1525.0009-.0002-.0178.0064-.0365.0131.0807.0064.1118.1086.214.097.0465-.0053.1042.0765.1544.1217.0654.0588.1242.1261.1933.1799.1286.1.2674.1869.3932.2901.1851.1519.3656.31.5415.4728.061.0566.1027.1346.1468.206.0167.0216.0313.0451.0505.0641.0138.0134.0342.0197.0507.0308.0876.0584.1747.117.2619.1757.0507.0339.1016.0675.1515.1023.1822.1263.3613.2571.5471.3774.0815.0528.1763.0851.2657.1255.0088.0041.0215-.0003.0324-.0006.0014-.0114.0024-.0228.0038-.0342.1001.0637.2003.1278.3004.1916-.0044.0076-.0092.015-.0138.0225-.0584-.0386-.1169-.0774-.1797-.1188.004.1125.3371.3494.5837.4047-.0242-.0199-.048-.04-.0722-.0599.004-.0068.008-.0139.012-.0207l.3729.2153c-.0028.007-.0053.0141-.0081.0211-.0422-.0085-.0845-.0172-.1267-.0257-.0012.0061-.0025.0124-.0037.0185.1362.0437.2772.0763.4071.1339.1298.0574.2485.1395.3871.1938-.0282-.0273-.0566-.0543-.0894-.0858.0854.0097.0839.0106.1255.1027.0058.013.0525.0235.0551.0195.048-.0773.1306-.0314.1623-.0138.0679.037.116.1102.1714.1693.031.0329.0556.075.0922.0991.0367.024.0848.0304.1325.046.0217-.0159.0495-.0361.0793-.058.0571.0575.107.1504.1655.156.0807.0078.107.0775.1733.0917.0716.0153.1423.0411.2083.0729.0764.0368.1384.1025.2396.0729.02-.0059.0596.0558.0904.0868.1554-.0452.2763.0579.4068.1064.099.0369.1807.1127.3012.0812.0319-.0084.0748.0265.1129.0407.0621.0231.1258.0421.1858.07.0188.0088.0275.0393.041.0601-.0089.0136-.0181.0273-.027.041.1465.0144.2931.0287.4394.0431-.0001.006 0 .0117-.0002.0176-.0281.0026-.0562.0053-.0845.0078-.0015.0098-.0031.0198-.0046.0296.2332-.0584.4241.063.641.1043.0362-.009.087-.0217.1379-.0345l-.0041.0008c.0659.0153.1317.0306.1973.0459.0014.0039.003.0079.0045.0117-.0551.0012-.1103.0025-.1656.0036-.0011.0059-.0021.0118-.0029.0177.1704.0434.3411.0869.5115.1303.0031-.0112.0065-.0226.0096-.0338-.0641-.018-.128-.0358-.192-.0538.0026-.0144.0054-.0287.0078-.0429.0529.0022.1058.0043.1587.0064-.0005-.0021-.0011-.0043-.0018-.0062.1096.0202.2199.0375.3285.0617.2334.0521.4665.1059.6983.1642.0335.0083.0566.0603.0895.0668.1086.0215.2194.0331.3297.0449.0414.0044.0842-.0012.1306.024-.0306.0129-.0612.0257-.101.0423.0376.0197.0672.0373.0988.0508.0502.0217.1052.085.1402-.0261.0063-.0194.0946-.0213.1437-.0166.0908.0086.1806.0297.2713.0427.1593.0229.3185.0461.4785.0639.0599.0067.1219-.0065.182-.0007.1617.0157.3227.038.4843.0547.0583.006.1188.0113.1759.002.0831-.0135.1429.0077.1945.0743.0149.0193.0562.0181.0935.0086-.0159-.0141-.032-.0281-.0478-.0422.0132-.0106.0274-.0313.0389-.0299.0327.0042.0757.0077.0937.0293.0504.0601.046.0636.15.0639l-.0815-.047.0047-.0278c.1044.0121.2087.0311.3132.0336.0837.002.1682-.024.2522-.0238.1431.0006.2861.0138.4292.018.0346.001.0701-.0195.1046-.0183.2076.0065.415.0241.6225.0227.1719-.0011.3642.0193.5087-.0506.1101-.0531.1709.025.2607.0033.1956-.047.3998-.0581.6005-.083.086-.0105.1727-.016.2584-.0291.1485-.0228.2956-.0571.4448-.072.086-.0087.1751.0185.2624.0157.0643-.0019.1282-.0263.1951-.0413-.0024-.0072-.0076-.0224-.0154-.0454.0457.0073.0848.0135.1242.0198.0017-.0044.0034-.0087.0052-.0131-.0265-.0119-.0528-.024-.086-.039.0131-.0093.0229-.0209.0286-.0194.0378.0111.0743.0264.1121.0381.1733.0532.3255-.0513.4894-.0664.1037-.0097.2065-.0421.3142-.0091.0246.0074.0648-.0356.0938-.0529.0739-.0189.1482-.0408.224-.0562.0988-.0201.1994-.0324.2978-.0538.0358-.0077.0662-.0392.1018-.0473.1844-.0415.3686-.0848.5547-.1167.1782-.0306.3243-.1325.4812-.2001.0314.0061.0325.1412.0912.0117.0221-.0487.1087-.078.1715-.0965.11-.0323.2246-.0496.3358-.0726-.0004.0047-.0021.0256-.0052.0658.0767-.0522.1433-.0971.2023-.1371.0397.0096.0755.0301.1048.023.0785-.0191.1739-.0296.2257-.081.0685-.0678.151-.0447.2192-.0791.131-.0659.2579-.1396.3878-.2082.0353-.0187.0752-.0287.1109-.0464.0051-.0025-.0004-.0263-.0004-.0268.0824-.0238.1797-.0386.2646-.0792.1283-.0617.2462-.1447.372-.212.0536-.0288.1193-.0344.1739-.0618.1572-.0788.3103-.1664.4677-.2443.0788-.039.1668-.0585.2448-.0984.0558-.0286.1003-.0782.152-.115.0443-.0316.0932-.0559.1373-.0876.1575-.1133.3139-.2281.4908-.3253-.0157.023-.0313.046-.056.0825.318-.1635.6076-.3379.8065-.6421.0136.0227.0253.0422.0413.069.0549-.0747.1058-.144.1685-.2296.0007.0476.001.0749.0018.1246.2937-.2456.5728-.4787.8846-.7393.0002.0556.0001.08.0003.1239.0244-.0281.0389-.0453.0538-.0625.125-.0542.2056-.1432.2228-.2826.0842.0111.203-.0834.2743-.238-.0572.0431-.0923.0661-.1232.0939-.0514.0466-.1001.0967-.1497.1457-.0743.0953-.1485.19-.2228.2844-.0294-.1068.0391-.1705.1056-.2332.0152-.0142.0537-.0138.0581-.0277.0616-.1896.2812-.226.3731-.3902.0352-.0628.1203-.0961.1769-.1491.0245-.0229.0343-.0615.051-.0928.0083-.0158.0138-.041.0263-.0455.064-.0225.1267-.0301.1511-.1184.0172-.0627.0789-.1131.1112-.1565.0512.0074.0891.0129.1214.0174-.0307.0423-.069.0947-.1071.1472.0077.0065.0156.0132.0234.0195.0234-.0253.0446-.0535.071-.0752.056-.0461.119-.0848.1714-.1346.0322-.0306.045-.0816.0764-.1138.1195-.1236.2361-.2517.3671-.3623.0934-.0788.2094-.1304.3129-.1975.1103-.0716.2157-.1504.3276-.2193.0429-.0265.0974-.0344.1465-.0509l.0201.0364c.0941-.1057.1884-.2113.2886-.3241-.5896.0299-1.1534.0578-1.7171.0875-.4602.0243-.92.0542-1.3802.0754-.218.0101-.4368.0055-.6551.009-.1899.0029-.3799.011-.57.0115-.2925.0008-.5849-.0044-.8774-.0041-.1106-.0001-.2232.0222-.3311.0081-.1009-.0132-.2181.0328-.2881 0-.0926-.0434-.177-.0293-.2643-.0414-.0451-.0062-.0932.0005-.1386.0084-.318.054-.6403-.0469-.9315.0349-.028-.0339-.0418-.065-.0566-.0655-.0582-.002-.1177.0001-.175.0105-.1309.0238-.2529.0025-.3766-.0425-.0477-.0174-.1075.0009-.1615-.0029-.0236-.0016-.046-.0174-.069-.027.0191-.0111.039-.0325.0576-.0314.0859.0045.1715.0232.257.022.1051-.0016.2096-.0231.3146-.0269.1909-.0065.382-.0074.5729-.0077.0695 0 .1401.0176.2086.0107.0496-.0047.0961-.0524.1449-.0534.3368-.008.6735-.0101 1.0102-.0114.0888-.0004.1774.0083.2769.0137.0004-.0314.0006-.061.0008-.0983.0659.0007.132.0017.1983.0024.0017.0059.0033.0118.0049.0179-.0567.0136-.1136.0274-.1704.041.0054.0177.0106.0353.0158.0532.1015-.0396.203-.0792.3105-.1212.0004.031.0007.0544.0011.0893.0922-.1305.2128-.0786.3207-.0794.0759-.0007.1523.0116.2278.0072.1471-.0086.2936-.0316.4408-.0368.2319-.0081.4641-.0018.696-.0099.2291-.0082.458-.0303.687-.0383.0528-.0018.107.0287.1527.042.0709-.0195.1443-.053.2195-.0583.5435-.0383 1.0874-.0706 1.6313-.1055.2298-.0148.4592-.0322.689-.0457.0321-.0018.0649.0122.0975.0188-.0051-.0233-.01-.0467-.0153-.0701-.0271-.0008-.0546-.0045-.0814-.0022-1.5883.1337-3.1791.204-4.7728.2087-.188.0006-.3762.0092-.5644.0137-.2011.0048-.4024.0116-.6037.0127-.2138.0011-.4278-.0029-.6418-.006-.1989-.0031-.3979-.0069-.5967-.0133-.0358-.0012-.1029.0195-.0709-.0634-.0655.0026-.1383-.0121-.1952.0116-.1187.0496-.2206.0738-.3215-.035-.0524-.0563-.1949-.0304-.2486.0311-.0114.013-.0308.019-.0192.0121-.06-.0346-.1028-.0807-.1452-.0799-.151.0027-.2975-.092-.4525-.0179-.0226.0107-.0618-.0187-.0939-.0216-.1035-.0097-.207-.0158-.3104-.0234.0067-.0115.014-.0242.0085-.0146-.0471-.0186-.0918-.0363-.1367-.0542.0014-.019.0026-.0378.0038-.0569.0506-.0313.0995-.0544.1314.0591.021-.0644.0321-.0984.048-.1476.0269.0106.0767.0325.1285.0489.0233.0074.0538.0118.0752.003.1453-.0581.2927-.0231.4396-.0175.0561.0022.125-.0248.2611-.09.0118-.0057.0435.0309.0547.0715l1.008-.0899.0128-.0343c-.0311-.0107-.062-.0298-.0933-.0301-.1342-.0015-.2687.0082-.4027.0028-.0776-.0032-.1538-.0317-.2316-.0407-.0946-.0111-.1903-.0135-.2855-.0208-.0462-.0034-.0923-.0097-.1384-.0147-.0029-.0116-.0055-.0233-.0085-.0349.0389-.015.0817-.049.1159-.042.2182.046.4348.0423.6541.0105.0671-.0098.1374.004.2081-.0047-.0998-.0986-.2387-.0198-.3523-.1031.0883-.0159.1768-.0443.2652-.0449.1102-.0007.2163-.0203.3346.0037.1489.0302.315-.0271.4741-.0408.0523-.0044.1063.0147.1593.0132.1938-.0053.3893-.0008.5808-.0268.1402-.0192.2807-.079.4203-.0526.1122.0212.2074-.0103.3122-.0363-.0201-.0067-.0402-.0133-.0603-.02.0012-.0037.0024-.0072.0035-.011.0512.0056.1024.0112.1595.0173.0006.0043.004.0291.0063.0459.3681-.0257.722-.0504 1.0927-.0762 0 0 .0056-.0215.0099-.0375.0743.0142.1477.0355.2218.0392.0413.002.0841-.0374.1262-.0374.084.0003.1679.0146.2614.0243-.0017.0128-.0045.0344-.0066.0498.1319-.0387.2659-.0778.3994-.117.0486.0989.1109.0528.1796-.0039-.0386-.0126-.0771-.0362-.1156-.036-.3052.001-.6103.006-.9154.0106-.1503.0024-.3009.0121-.4509.0074-.055-.0018-.1087-.0362-.184-.0633.0234.0326.031.0432.0383.0532-.0463.0113-.093.0226-.1415.0345-.0777-.1116-.2764-.1051-.5196.0249-.023-.0724-.0623-.0868-.1456-.076-.1221.0158-.2497-.018-.3747-.0174-.1294.0006-.259.018-.3885.0264-.0903.0059-.1809.0122-.2714.0121-.1735-.0003-.3468-.0035-.52-.0096-.043-.0017-.0855-.0192-.128-.0304-.014-.0037-.0322-.0199-.0396-.0156-.1315.0789-.2626.0566-.3899-.0046-.0644-.0309-.1128.0141-.1676.0171-.1512.0081-.3032.0026-.4548.0014-.0811-.0007-.1625.0005-.2429-.0076-.0395-.0041-.0769-.0277-.1189-.0439-.0227.0228-.0514.0517-.0832.0838-.0116-.0223-.017-.0504-.0296-.0538-.0677-.0188-.1373-.0308-.2061-.0465-.0287-.0067-.0735-.0089-.0819-.0268-.0271-.0581-.0554-.0541-.1016-.025-.0127.008-.0408-.0087-.0619-.0141.0114-.0197.0214-.0559.0339-.057.1474-.0119.295-.0194.4428-.024.0141-.0005.0291.0282.046.0458.0217-.0223.0437-.0446.0711-.0728-.0491-.0338-.1008-.0697-.159-.11-.1945.0886-.3464-.1492-.5359-.0965-.0313-.0382-.0597-.0728-.0929-.1133.0931-.0052.1897-.0125.2864-.014.0187-.0004.0362.0279.057.0342.0278.0083.0702.0218.0857.0086.1442-.1237.274-.0081.4095.017.0336.0061.077.0064.1043-.0099.1212-.0715.2859.0012.3926-.1236.0144-.0169.0726-.0026.1083.0063.0973.0239.1937.0527.2904.0795.0047-.0108.0093-.0219.014-.0328-.0134-.0124-.0267-.025-.0434-.0407.0764-.0517.154-.1044.2316-.1568.0024.0152.0045.0305.0069.0457.0364.0176.0715.0462.1096.051.1803.0236.3614.0408.5419.0604.1078.0116.216.0212.3235.0371.0213.0032.0393.0303.0629.0497.0879-.1197.2085-.0663.3184-.07.0349-.0013.0697-.0106.1041-.0095.0497.0019.0994.0146.149.0143.0794-.0005.1589-.0078.2384-.0121l.0123-.0555c-.0379-.0182-.074-.044-.1137-.0529-.0835-.0185-.1689-.0308-.2541-.0383-.0154-.0013-.034.0323-.0601.0591-.0971-.1123-.2563-.076-.406-.0809-.1402-.0046-.2867-.0511-.4064.0896-.0041-.0128-.0081-.0253-.0122-.0381.0219-.0181.044-.0361.081-.0668-.3314-.0345-.6453-.0672-.9591-.0998.0767-.0592.1547-.0902.2468-.0509.0279.012.0618.0214.091.0173.0529-.0074.1043-.0374.1465.0271.0073.0112.0527.0098.0721-.0009.1169-.0646.2356-.0195.3534-.0099.01.0008.0174.0299.0105.017.1136.0085.2131.0237.3119.0198.0458-.0017.089-.0437.1357-.0618.0472-.0187.1024-.0512.1447-.0406.0802.0203.1449.0235.224-.0147.0702-.0337.1578-.0408.238-.0421.1696-.003.3394.0041.5089.0108.0319.0012.0626.0228.0949.0287.0621.0113.1252.0264.1879.0256.2313-.003.463-.0079.6939-.021.064-.0037.149.0313.1908-.0642.006-.014.0887-.0103.0889-.0091.0147.1197.1191.0768.177.0842.0944.012.193-.01.316-.0198l-.0914-.0527c.0006-.0073.0014-.0146.002-.0219.0775.0028.1642-.0154.2298.0139.0673.03.1216.0204.1556-.0183.0581-.0663.1233-.0552.1801-.0527.0079.0255.0153.061.0193.0607.0752-.0066.1559.0285.2238-.0394.0672-.0673.1769-.0662.2386-.0071.0919.0879.1499.0795.1964-.0016.129.0096.2432.0255.357.024.0746-.001.1574.0507.2276-.0231.0047-.0049.0471.0262.0695.0099.2287-.0155.4572-.0308.6801-.0459.0995.1658.1899-.0223.2905.0022-.0105.0142-.0207.0282-.0313.0426.0066.002.0172.0071.0185.0053.0743-.102.1879-.0477.2813-.0729.0451-.0123.0975.0187.1333-.0612.0253-.0565.0748.0028.0825.0575.1117-.004.2219-.0082.3319-.0121-.0004-.011-.0009-.0219-.0013-.0329-.0208.0008-.0429.0063-.0622.0014-.024-.0063-.0456-.0216-.0683-.0329.0203-.0099.0422-.0176.0606-.0304.0143-.01.0246-.026.0329-.035.1362-.006.2782-.0139.4202-.0177.1134-.0031.2219-.0048.3334.0505.0609.0302.1579-.0102.2382-.0212.0476-.0067.0946-.0178.1419-.027.0024.0092.0046.0185.0071.0278-.0321.0154-.0641.0307-.1248.0601.1049.0189.1818.0327.2683.0483-.0282-.1544.0906-.1114.1486-.1243.0878-.0196.1824-.0075.2734-.0151.1137-.0094.2266-.029.3406-.0367.0571-.0037.1151.0147.1727.0133.0563-.0014.1121-.0169.1683-.0238.0814-.0101.1625-.0226.2441-.0264.1553-.0067.311-.0054.4665-.0123.0716-.0032.1428-.0174.2183-.0056-.0577.0574-.1688-.0508-.1975.0746.0648-.0035.131-.0033.1959-.0133.0208-.0031.0349-.0374.0567-.049.0425-.0227.0882-.0393.1328-.0583.0052.0108.0106.0217.0157.0327-.0138.0132-.0278.0262-.0574.0539.0634.003.112.0053.1937.0089l-.0736-.0424c-.0012-.0088-.0023-.0176-.0035-.026.1852-.02.37-.0439.5554-.0588.1879-.0153.3767-.0218.5729-.0325-.1101.2322-.2162.4583-.3245.6838-.0467.0971-.1085.1883-.1431.2892-.029.0846-.0291.1795-.0418.2696-.0015.0101.0016.0241-.0042.0301-.1894.2-.2216.4736-.3301.7111-.0706.1547-.1025.3268-.1601.4879-.047.1319-.0779.2878-.1697.3795-.0678.0679-.0418.1833-.1463.2238-.0162.0063-.0551.1112-.0316.1936.0151.053-.0391.1541-.0919.1924-.1062.0771-.0764.2045-.1416.294-.0427.0585-.0447.1564-.0963.1962-.0896.0694-.0492.1667-.0874.2445-.0638.1305-.1342.2618-.1691.4012-.0471.1875-.2181.3335-.1584.5579-.0435-.0103-.0638-.0152-.0716-.0171-.0051.0643-.0008.1322-.0179.1942-.0185.0668-.0568.1278-.0893.1976-.0186-.0152-.0359-.029-.064-.052-.0009.0669-.0016.1186-.0019.1409-.0445.0477-.0833.073-.0983.1084-.0343.0811-.0396.1705-.0907.2495-.0337.0521-.0303.1273-.05.1899-.0526.1664-.109.3317-.1639.4975-.0597.18-.1178.3609-.1802.5399-.0142.0408-.053.0733-.0647.1143-.0302.1059-.053.2136-.0757.3214-.0237.1127-.0436.226-.0697.3629-.0233-.039-.033-.0553-.0441-.0739-.0964.2031-.1812.4053-.1243.6409-.0097.001-.0186.0039-.0271.0023-.0103-.0015-.0199-.0065-.0557-.0193.0311.0692.0534.1189.0758.1685.0102-.0029.0208-.0059.0311-.0088l-.0581.1006c-.0201-.0392-.043-.0834-.071-.1381-.1178.2352-.0606.5005-.2127.7048-.0187-.01-.0366-.0204-.0693-.0392-.0238.1707-.0463.3318-.069.4928.014.002.028.0039.0419.0059.016-.1247.0293-.2499.0496-.374.0052-.0311.0322-.0585.0494-.0877-.006.0125-.0184.0259-.017.0374.0191.1437-.0123.278-.042.4187-.0237.1122-.1255.22-.0569.351.0077.0146-.0279.0519-.0476.086.0022.052.0051.1178.0081.1839-.0056-.0129-.0111-.0259-.0164-.0387-.0342.0001-.0683.0005-.1024.0006.0054.0235.0109.0469.0164.0702-.0015-.046-.0032-.0923-.0047-.1383l-.015.0003c-.0567.1869-.1032.3779-.174.5593-.0444.1133-.1245.213-.1913.3172-.0297.0467-.0629.0919-.0993.1334-.0268.0307-.0616.0544-.0927.0812-.0158-.0083-.0316-.0166-.047-.025-.0343.1834-.0687.3669-.1031.551-.0046-.0034-.0192-.0142-.0333-.0249-.0043.0048-.0071.0073-.0093.0102-.0607.0794.0197.2157-.1217.2722-.0406.0162-.0439.1201-.07.1811-.0257.0599-.0583.1172-.0892.1749-.0083.0156-.0308.0289-.0305.0429.0023.1705-.1469.2076-.2352.301-.088-.0957-.1029-.2254-.0515-.3175.0137-.0246.0288-.0571.024-.0822-.0297-.1572.0389-.2906.089-.431.0233-.065.0046-.1441.0228-.2121.049-.1859.1049-.3701.163-.5534.0329-.1032.0845-.203.0095-.3242-.0344.0779-.0661.1495-.0997.2258-.0098-.0222-.0178-.0403-.0177-.0397-.1175.1617-.2395.3292-.3613.4968-.0095-.0024-.0191-.0048-.0286-.0071.1159-.4262.1918-.8579.2294-1.2951-.0118-.0024-.0238-.0047-.0357-.0071-.0716.3134-.1433.6269-.2169.9492-.0766-.0554-.0966-.0302-.1976.2281-.0328-.045-.0704-.0732-.073-.1044-.0084-.1008-.0165-.2045-.0019-.3037.054-.369.1009-.7405.1854-1.1029.0316-.135.0393-.2592.0333-.3922-.0039-.0896-.007-.1789.0562-.2623.0666-.0879.1128-.1814.0784-.3112-.0209-.0783.0133-.1881.0572-.2636.1244-.2146.1763-.4392.1506-.6838-.002-.0208-.0066-.043-.0017-.0623.0583-.2269.1215-.4526.1766-.6801.064-.2642.1224-.53.1814-.7953.0191-.0859.0286-.174.0485-.2598.0147-.0639.0389-.1255.0839-.181-.0153.0753-.0307.1506-.0459.226.0134.003.0268.006.0402.0088.068-.2471.1335-.4949.2049-.7411.0583-.2012.1145-.4035.1874-.5993.1386-.3729.2917-.7406.4323-1.1126.1258-.3328.2466-.6678.3621-1.0045.0265-.0775.0225-.1652.0371-.2851-.2902.159-.5776.1153-.8515.1592-.1516.0242-.307.0246-.4593.0467-.0445.0063-.0908.0427-.1246.0769-.1365.139-.2793.2742-.3993.4269-.1365.174-.3487.2876-.413.5199-.0122.044-.0513.0806-.0975.1498.0489-.0139.0941-.0223.0938-.0271-.0107-.137.1297-.1612.1844-.2487.0256-.0408.0744-.0671.1198-.106-.0084.0321-.0162.0623-.0195.0752.0895-.0694.176-.1746.286-.214.1976-.0709.3058-.2542.4857-.3403.009-.0044.0207-.0034.0457-.0072-.4475.5461-.8866 1.0821-1.3258 1.6179.0063.0094.0124.0186.0187.028.0274-.011.0636-.0146.0811-.0345.322-.3629.6419-.7281.9627-1.0922.0066-.0073.0195-.0093.0404-.0186-.0125.0353-.0219.0614-.0347.0972.0174-.0113.0265-.0154.0335-.022.0985-.0949.1956-.191.2962-.2835.0138-.0127.0595-.0162.064-.0086.0128.0216.0248.0599.0142.0769-.1523.2412-.2999.4865-.4664.7176-.1575.2187-.3324.4252-.5071.6308-.1035.1221-.2262.2277-.3315.3483-.1733.1983-.3386.4039-.5093.6045-.0876.1029-.1576.2196-.2859.2878-.1083.0576-.2039.1403-.3004.2177-.0327.0265-.0477.0736-.0762.1067-.0473.055-.0987.1061-.1487.1588-.026.0275-.0522.0548-.0788.082-.0253.0258-.0482.0547-.077.0756-.1846.1345-.37.2677-.5558.4002-.156.1114-.2834.2481-.3762.4166-.0048.0084-.0187.0116-.0278.018-.2708.189-.544.3742-.8116.5676-.3916.2829-.7755.5764-1.1698.8553-.1862.1318-.3876.2422-.584.3592-.0496.0295-.1063.047-.1714.047.111-.0637.2216-.1272.3325-.1909-.0056-.011-.0115-.022-.0171-.033-.0954.0457-.1918.0896-.2858.138-.2425.1247-.4835.253-.7264.3772-.2539.13-.5062.2639-.7654.3824-.2018.0922-.4126.1652-.6209.2433-.2194.0825-.4379.1696-.6613.2392-.2823.0877-.5689.1617-.8547.2383-.4561.1223-.9108.252-1.37.3613-2.419.5763-4.8661.7946-7.347.5706-.8902-.0803-1.7779-.1821-2.6516-.3733-.5234-.1146-1.0435-.2468-1.561-.3861-.3764-.1013-.7541-.2063-1.117-.3465-.6105-.236-1.2155-.4883-1.8116-.7585-.4778-.2164-.9418-.4645-1.4067-.7084-.2584-.1354-.5143-.2792-.7574-.4402-.3637-.2407-.717-.4971-1.0709-.7525-.2571-.1857-.5126-.3749-.7602-.5731-.2227-.1783-.4425-.362-.6466-.5609-.1406-.137-.286-.2688-.4282-.4039-.139-.1321-.299-.2484-.4112-.4005-.1056-.143-.2455-.2405-.3491-.3389.0033-.0432.0143-.0707.0052-.082-.0954-.1157-.1877-.2352-.2936-.3409-.1129-.1129-.2429-.2083-.3581-.3188-.0426-.0408-.0649-.1027-.0962-.1549-.0057-.0095-.0097-.0201-.0165-.0287-.1561-.2007-.3108-.4026-.4693-.6014-.0984-.1236-.2024-.2423-.3257-.389l.0963.0556c.004-.0039.0081-.0078.0122-.0117-.0725-.1039-.1409-.2114-.219-.311-.0781-.0995-.1846-.1793-.1985-.3189-.0014-.0133-.0122-.0289-.0233-.0377-.1002-.0784-.101-.1987-.1307-.3069l-.0029.001.0023-.0005Zm1.7519-.2892c.0509.067.1016.1338.1663.2188.0173-.1612-.0742-.1911-.1702-.2174.01-.0174.0327-.0431.0275-.0513-.0737-.1179-.1479-.2355-.2305-.3473-.0166-.0226-.0677-.0198-.1095-.0304.0624.1913.1754.3202.3161.4277l.0003-.0001Zm26.4479-1.597c.273.0646.5483-.0511.8233.0957-.0888.0032-.1534.0055-.2177.0077.1147.0454.2255.0635.3153-.0389.0115-.0132.028-.0277.0439-.0305.1216-.0204.2438-.0382.3658-.0569-.0012-.0093-.002-.0186-.0032-.0279-.1125-.004-.2249-.0081-.3371-.0117-.0473-.0015-.0944-.0019-.1415-.0028-.1255-.0023-.2547.0128-.3748-.0131-.068-.0147-.1191-.0197-.1891-.0088-.078.012-.179.0791-.2591-.0318-.0197-.0273-.1115-.0099-.168-.0003-.0349.0059-.0831.0604-.096.0514-.0955-.0674-.0358.0442-.0698.0415.0003.0103.0004.0209.0007.0312.1042.0304.2085.0612.3255.0954-.0082-.0459-.0114-.0637-.0178-.1004l-.0004.0002Zm5.4853 1.5346c.4279-.0383.8382-.0453 1.2338-.1619-.3984.0345-.7958.0758-1.1932.1186-.0103.0011-.019.0193-.0408.0432l.0002.0001Zm-8.2176-1.1928c-.0012-.0124-.0025-.0246-.0037-.037-.0407.0033-.0817.0099-.1224.0096-.0949-.0006-.1899-.0073-.2848-.0045-.0226.0008-.0444.0283-.0666.0437.0181.0183.0333.0421.0551.0534.0216.0112.0514.0174.075.0126.1164-.0235.2319-.0514.3476-.0777l-.0002-.0001Zm-22.7142 2.0812c.0168-.0017.0339-.0033.0508-.0051-.0047-.0509.0089-.1178-.0184-.1489-.0416-.0475-.1113-.0705-.1693-.104-.0039.0099-.0081.02-.0121.03.0497.0758.0992.1519.1489.2277l.0001.0003Zm-.6582-.8068c-.0072.0075-.0143.0149-.0215.0224.0802.1037.1602.2072.2404.3108.0079-.0061.016-.0123.0241-.0183-.07-.1132-.1037-.2536-.2428-.3148l-.0002-.0001Zm29.9287.9992c.006.0084.0123.017.0183.0254.1126-.0204.2527-.19.2136-.2418-.0764.0714-.1542.144-.232.2166l.0001-.0002Zm-29.9178.573c.0712.1797.1568.2586.2717.2504-.0901-.083-.1723-.1589-.2717-.2504Zm24.0266-3.1308c-.0774-.0922-.1491-.1056-.215-.0402.077.0145.1461.0275.215.0402Zm-23.9954 3.092c-.0936-.0903-.1762-.1695-.2585-.2488-.0086.0096-.0173.0192-.0261.029.112.0469.108.2241.2846.2198Zm24.3676-2.1065c-.0027-.0109-.0054-.0221-.0082-.0331l-.2566.046c.0042.0175.0086.0352.0129.0525.0839-.0219.1681-.0437.252-.0656l-.0001.0002Zm-.8162-.9319c-.001-.0118-.002-.0236-.0029-.0356-.0802.0082-.1658-.0803-.2622.0425.1031-.0027.1842-.0047.2653-.0068l-.0002-.0001Zm-12.5016 7.9626c-.0899-.0183-.1818-.0367-.2738-.0555.1448.0758.2361.0943.2738.0555Zm-8.5004-1.3368-.2368-.1368c.0565.1064.1097.1828.2368.1368Z">
                                          </path>
                                          <path
                                            d="M51.3993 65.0552c-.0014.019-.0026.0378-.0038.057-.0147.0146-.0279.0388-.0448.0421-.0456.0086-.0928.0082-.1618.0129.0052-.0218.0066-.0837.0235-.0881.0597-.016.116-.0987.1871-.0238l-.0002-.0001Zm-24.6978-2.6598c-.1411-.114-.1498-.2973-.2132-.4535.1501.1093.0858.3292.2132.4535Zm2.0274 3.0139c-.0803-.1094-.1603-.2184-.2468-.3363.094.0167.2373.2107.2558.3301.0004.002-.0084.0055-.0091.0059l.0001.0003Zm21.9356-.4336c-.1369.0929-.26.0094-.3743.0474-.0004-.0164-.0009-.0332-.0013-.0496.1162.0007.2324.0014.3756.0022Zm11.6679 7.0875c.002.1101.0043.2203.0063.3304-.0101.0004-.0203.0008-.0305.0014-.0064-.1097-.013-.2196-.0194-.3294.0145-.0007.029-.0015.0435-.0022l.0001-.0002Zm-34.7377-6.5717c-.0583-.0663-.1186-.131-.1736-.1998-.0122-.0154-.0061-.0453-.0085-.0682.0214.0115.0526.018.0625.036.0424.0758.0783.1552.1166.2331l.0029-.0009.0001-.0002Zm.8732-.5169c-.096-.076-.1471-.185-.1847-.3042.0701.0931.1404.1861.2107.2793-.0087.0083-.0174.0166-.0258.025l-.0002-.0001Zm29.1236 2.5725-.1507.2609c-.0127-.0037-.0256-.0075-.0383-.0112.0091-.0383.0068-.0865.0297-.1132.0432-.05.1008-.088.1593-.1365Zm-17.6287 3.8355c-.0903-.0185-.1804-.0369-.2707-.0554.0026-.0144.0049-.0288.0075-.0432.0978.0195.1959.0389.3194.0635-.0365.0217-.0484.0289-.0602.0359l.004-.0008Z">
                                          </path>
                                        </g>
                                        <g class="fill-black group-hover:fill-orange"
                                          clip-path="url(#c-198239123120321)">
                                          <path
                                            d="m10.6838 33.7884-3.42013 3.4201L19.0012 48.946l3.4201-3.4201-11.7375-11.7375Z">
                                          </path>
                                          <path
                                            d="M19.0012 33.7883 7.26367 45.5259l3.42013 3.4201 11.7375-11.7376-3.4201-3.4201Z">
                                          </path>
                                        </g>
                                        <g
                                          clip-path="url(#d-198239123120321)">
                                          <path
                                            class="fill-black group-hover:fill-orange"
                                            d="m77.1485 41.3678-4.0538 4.0537-4.0537-4.0537 4.0537-4.0537 4.0538 4.0537Zm3.9894-.0004-8.0432-8.0432-8.0432 8.0432 8.0432 8.0432 8.0432-8.0432Z">
                                          </path>
                                        </g>
                                        <defs>
                                          <clipPath
                                            id="a-198239123120321">
                                            <rect
                                              width="36.4873"
                                              height="23.8502"
                                              fill="#fff"
                                              transform="rotate(-150.278 33.0436616 11.99925985)">
                                            </rect>
                                          </clipPath>
                                          <clipPath
                                            id="b-198239123120321">
                                            <rect
                                              width="36.4873"
                                              height="23.8502"
                                              fill="#fff"
                                              transform="rotate(30 -66.75586281 89.93397953)">
                                            </rect>
                                          </clipPath>
                                          <clipPath
                                            id="c-198239123120321">
                                            <rect
                                              width="15.1576"
                                              height="15.1576"
                                              fill="#fff"
                                              transform="translate(7.2627 33.7886)">
                                            </rect>
                                          </clipPath>
                                          <clipPath
                                            id="d-198239123120321">
                                            <rect
                                              width="11.3748"
                                              height="11.3748"
                                              fill="#fff"
                                              transform="rotate(45 -3.6785178 104.89520804)">
                                            </rect>
                                          </clipPath>
                                        </defs>
                                      </svg>