 <svg
                                        xmlns="http://www.w3.org/2000/svg"
                                        fill="none"
                                        viewBox="0 0 90 95">
                                        <path
                                          fill="currentColor"
                                          d="M58.1391 35.9595c.1377.1295.2747.261.409.3954 1.6798 1.6803 2.9986 3.637 3.9194 5.8155.954 2.256 1.4375 4.652 1.4375 7.1216 0 2.4697-.4835 4.8661-1.4375 7.1217-.9212 2.1785-2.2399 4.1352-3.9194 5.8155-1.6798 1.6804-3.6357 2.9995-5.8135 3.9207-2.2553.9543-4.6505 1.438-7.1194 1.438-2.1938 0-4.3295-.3828-6.3603-1.1375 2.3691 1.1456 5.0271 1.7879 7.8347 1.7879 9.9555 0 18.0259-8.0733 18.0259-18.0318 0-5.7935-2.7321-10.9481-6.9768-14.247h.0004Z">
                                        </path>
                                        <path
                                          fill="currentColor"
                                          d="M63.6415 49.2922c0-6.1663-3.095-11.6087-7.8146-14.8603-2.588-1.4376-5.5664-2.2571-8.7366-2.2571-9.9555 0-18.0258 8.0733-18.0258 18.0318 0 6.1663 3.0949 11.6087 7.8146 14.8603 2.5879 1.4376 5.5664 2.2571 8.7365 2.2571 9.9556 0 18.0259-8.0734 18.0259-18.0318Zm-31.4106.9144c0-3.9702 1.5454-7.7028 4.3522-10.5103 2.8065-2.8074 6.538-4.3537 10.5069-4.3537 3.9689 0 7.7003 1.546 10.5068 4.3537 2.8064 2.8075 4.3522 6.5401 4.3522 10.5103 0 3.9702-1.5454 7.7029-4.3522 10.5103-2.8065 2.8074-6.5379 4.3537-10.5068 4.3537-3.9689 0-7.7004-1.5459-10.5069-4.3537-2.8064-2.8074-4.3522-6.5401-4.3522-10.5103Z">
                                        </path>
                                        <path
                                          fill="currentColor"
                                          d="M45.3308 46.5486c-.4493-.2401-.9164-.4833-1.3914-.7219-.0156.166-.0305.3351-.0454.5082 0 0-.0137.3954-.0219 1.0511.2449-.146.4932-.2912.7451-.4356.239-.1371.4772-.2711.7139-.4022l-.0003.0004Zm-1.3142 6.5787c.0681.9644.1653 1.928.3022 2.813.4151.025.7445.3813.7445.8169 0 .3206-.1783.598-.4378.7324.0462.1821.095.3571.1467.5231 0 0 .3294 1.419.9886 2.183 0 0 .1638.1639.3272-.0543 0 0 .7686-.6553 1.3176-3.7658 0 0 .2375-1.3635.4172-3.2196-.6249-.3031-1.2673-.6326-1.9213-.9871-.641.3437-1.2715.6639-1.8845.9588l-.0004-.0004Zm3.8351-7.8809c-.1455-1.5087-.4206-3.3778-.9376-5.2972 0 0-.4079-1.4424-.8948-1.7872-.0811-.0577-.1917-.0488-.2624.0212-.3153.3116-1.2041 1.6498-1.7598 7.058.6249.3031 1.2674.6326 1.9213.987.6581-.3529 1.3046-.681 1.9333-.9818Zm-3.2413 6.1985c-.2367-.1374-.4704-.2751-.7012-.4137.0171.5031.0409 1.0229.0722 1.5471.4552-.2126.9301-.4434 1.4103-.6892-.2591-.1441-.5196-.2923-.7809-.4438l-.0004-.0004Zm1.8544-4.9156c.2479.1385.4969.28.7471.4252.265.1537.5263.3083.7835.4635-.0153-.4453-.0439-.9975-.0953-1.6289-.1664.0755-.3361.1537-.5096.2345 0 0-.351.1858-.9257.5057Zm-4.455 2.6841c.4161.2908.8587.5898 1.3172.8854-.0052-.2964-.0078-.5961-.0078-.8984 0-.2778.0022-.553.0067-.8259-.431.2673-.8736.5488-1.3161.8393v-.0004Zm1.3293-1.5058c.0209-.732.0573-1.4428.1072-2.1252-1.6169-.7898-3.281-1.4909-4.5905-1.7891 0 0-1.3924-.4267-2.3833-.2394 0 0-.2237.0607-.118.312l.0008.0026s.1318.7197 1.663 2.1904c.1318-.1012.2948-.1612.4716-.1612.437 0 .791.3664.791.8188 0 .1359-.032.264-.089.3768.3942.3202 1.2477.9993 2.336 1.7798.5736-.388 1.1788-.7779 1.8112-1.1651v-.0004Zm-1.7924 1.8123c-1.493 1.0038-2.9331 2.0933-3.8472 3.077 0 0-1.0649.9923-1.3996 1.9439 0 0-.0617.2242.2111.2588 0 0 .9503.3411 3.9209-.7298 0 0 1.3087-.4751 3.0153-1.2469-.0506-.687-.0871-1.4026-.108-2.1398-.6257-.3869-1.2249-.7763-1.7929-1.1636l.0004.0004Zm4.8576 2.3761c.3953.2111.8903.4647 1.4669.7383.045-.5235.0837-1.0768.1109-1.6431-.2564.153-.5166.3053-.7805.4569-.2669.153-.5327.3023-.7969.4479h-.0004Zm8.98-8.3129c-.287-.0789-1.1077-.1534-3.1299.4814-.0607.3895-.3871.6874-.7809.6874-.2129 0-.4057-.0872-.5479-.2283-.7329.2733-1.5789.6185-2.5545 1.053.0502.6866.0871 1.4011.1079 2.1376.6421.3972 1.2563.7968 1.8373 1.1944 1.2327-.8765 2.7104-2.0423 4.1111-3.4411 0 0 1.0503-1.0716 1.1047-1.6655.0104-.0994-.0525-.1914-.1485-.2182l.0007-.0007ZM49.87 49.2217c-.153-.1091-.3101-.2201-.4716-.3333 0 0-.3376-.2115-.9041-.5495.0048.2841.0071.5711.0071.8608 0 .3109-.0027.6192-.0082.9238.3811-.2368.8501-.5392 1.3768-.9018Z">
                                        </path>
                                        <path
                                          fill="currentColor"
                                          d="M45.6157 31.2607c-9.9555 0-18.0259 8.0734-18.0259 18.0319 0 9.9584 8.0707 18.0318 18.0259 18.0318s18.0259-8.0734 18.0259-18.0318c0-9.9585-8.0707-18.0319-18.0259-18.0319Zm10.3244 23.7509c-.5516.9543-3.6789.2305-7.6139-1.6155-.376 4.3306-1.3162 7.4005-2.4164 7.4005-.6972 0-1.33-1.2324-1.796-3.2363-.3606-.0764-.632-.4063-.632-.802 0-.2797.1355-.5265.3421-.674-.1362-.8254-.2487-1.7347-.3328-2.7076-3.9514 1.8349-7.0895 2.5498-7.6378 1.594-.5475-.9551 1.6445-3.2997 5.214-5.7813-.8364-.5868-1.5972-1.1658-2.2638-1.7205-.096.0428-.2021.067-.3134.067-.437 0-.791-.3664-.791-.8184 0-.07.0086-.1378.0246-.2026-1.4635-1.3847-2.1894-2.5292-1.8443-3.1261.5516-.9539 3.6808-.2308 7.614 1.6137.3759-4.3295 1.3161-7.3983 2.4164-7.3983 1.1002 0 2.0434 3.0789 2.4179 7.4192.8278-.3843 1.6198-.7198 2.3602-1.0009-.003-.029-.0045-.0581-.0045-.0878 0-.4521.3543-.8184.7909-.8184.2889 0 .5416.1604.6797.3999 2.0289-.6245 3.4579-.7023 3.8115-.0861.5475.9551-1.6445 3.2993-5.2133 5.7809 3.5562 2.4965 5.7403 4.8497 5.1883 5.8021l-.0004-.0015Z">
                                        </path>
                                        <path
                                          fill="currentColor"
                                          d="M48.0109 48.0527c-.5814-.3414-1.3106-.7595-2.1187-1.2011-.5732.3254-1.2718.7316-2.0252 1.1896-.003.675.0015 1.5072.0253 2.4146.478.2956.9682.5823 1.4591.847 0 0 .195.1199.5513.3191.524-.2792 1.047-.5749 1.5495-.8839 0 0 .2017-.1091.5527-.3176.019-.5965.0231-1.2008.0052-1.7935 0 0 .0052-.2056.0008-.5738v-.0004Zm-2.1283 2.4839c-.7534 0-1.3638-.611-1.3638-1.3643 0-.7532.6108-1.3642 1.3638-1.3642.7529 0 1.3637.611 1.3637 1.3642 0 .7533-.6108 1.3643-1.3637 1.3643Zm2.5975.1532c-.0216.7499-.0592 1.4775-.111 2.1756 1.3761.6285 3.1255 1.324 5.0387 1.8371 0 0 1.4524.3701 1.9947.1217.0908-.0409.1384-.1415.1135-.2379-.1124-.4278-.8233-1.8691-5.2236-5.0619-.5736.388-1.1792.7782-1.812 1.1654h-.0003Zm16.128-28.8168c-.1486 0-.2624.1189-.2624.2675s.1188.2675.2624.2675.2624-.1189.2624-.2675-.1188-.2675-.2624-.2675Zm.9104-1.0205c-.1929 0-.3514.1586-.3514.3615-.005.198.1536.3615.3514.3615.1979 0 .3515-.1586.3515-.3615s-.1585-.3615-.3515-.3615Zm-3.3407-.4062c-.3216 0-.5791.2625-.5791.5892-.005.3267.2575.5892.5791.5892.3217 0 .5791-.2625.5791-.5892 0-.3267-.2574-.5892-.5791-.5892Zm1.4998.5845c-.1929 0-.3514.1585-.3514.3614 0 .203.1535.3615.3514.3615s.3514-.1585.3514-.3615c0-.2029-.1585-.3614-.3514-.3614Zm3.6769-2.0347c-.3217 0-.5791.2625-.5791.5892 0 .3267.2624.5892.5791.5892.3167 0 .5791-.2625.5791-.5892 0-.3267-.2575-.5892-.5791-.5892Zm-1.1183 2.6831c-.1486 0-.2624.1188-.2624.2675-.005.1486.1138.2674.2624.2674s.2624-.1188.2624-.2674c0-.1487-.1188-.2675-.2624-.2675Z">
                                        </path>
                                        <path
                                          fill="currentColor"
                                          d="M78.9088 15.6383c0-5.0842-2.5517-9.57189-6.4436-12.25286-2.1341-1.18507-4.5898-1.86103-7.2037-1.86103-8.2087 0-14.8631 6.65658-14.8631 14.86799 0 5.0842 2.5517 9.5719 6.4436 12.2529 2.1341 1.1851 4.5898 1.861 7.2037 1.861 8.2087 0 14.8631-6.6566 14.8631-14.868Zm-25.8991.7541c0-3.2738 1.2743-6.3514 3.5884-8.66624 2.3141-2.31485 5.391-3.58963 8.6634-3.58963 3.2724 0 6.3493 1.27478 8.6634 3.58963 2.3141 2.31484 3.5884 5.39244 3.5884 8.66624 0 3.2738-1.2743 6.3514-3.5884 8.6662-2.3141 2.3149-5.391 3.5897-8.6634 3.5897-3.2724 0-6.3493-1.2748-8.6634-3.5897-2.3141-2.3148-3.5884-5.3927-3.5884-8.6662Z">
                                        </path>
                                        <path
                                          fill="currentColor"
                                          d="M74.3717 4.64551c.1135.10692.2263.21516.3372.32606 1.3849 1.38534 2.4723 2.99875 3.2317 4.79522.7866 1.86001 1.1854 3.83561 1.1854 5.87201 0 2.0365-.3988 4.0121-1.1854 5.8721-.7594 1.7965-1.8468 3.4099-3.2317 4.7952-1.3849 1.3854-2.9978 2.4731-4.7937 3.2328-1.8594.7869-3.8343 1.1857-5.8701 1.1857-1.8091 0-3.5699-.3158-5.2443-.9377 1.9534.9447 4.145 1.4743 6.4601 1.4743 8.2087 0 14.8631-6.6565 14.8631-14.8679 0-4.7771-2.2525-9.0271-5.7526-11.74746l.0003-.00033Z">
                                        </path>
                                        <path
                                          fill="currentColor"
                                          d="M69.9282 8.8371c-.4057-.26747-.7323-.44556-.9848-.5495-.5927.47866-1.1146.82458-1.505 1.04504-.0603.03608-.1185.07051-.1728.10328 1.1582.52468 2.1679 1.34658 2.925 2.37148.0023-.0086.0046-.0169.0069-.0255-.0056-.0079-.0112-.0159-.0168-.0238.173-.5644.4652-1.3715.9057-1.96037-.2624-.28203-.6781-.63854-1.1582-.9603V8.8371Z">
                                        </path>
                                        <path
                                          fill="currentColor"
                                          d="M64.0447.77002c-8.2087 0-14.8631 6.65658-14.8631 14.86798s6.6544 14.868 14.8631 14.868 14.8631-6.6566 14.8631-14.868c0-8.2114-6.6544-14.86798-14.8631-14.86798Zm8.3484 10.10688c-.2525.3466-.6582.5395-1.1235.5395-.178 0-.3514-.0298-.5295-.0791-.1257.3532-.2237.7008-.2849 1.0232.7284 1.1715 1.1506 2.5592 1.1506 4.0465 0 4.1931-3.3406 7.5943-7.4631 7.5943-4.1226 0-7.4632-3.4012-7.4632-7.5943 0-4.1931 3.3406-7.5944 7.4632-7.5944.9143 0 1.7912.16882 2.6023.47701.1691-.08144.3825-.19531.6397-.35354-.0742-.11387-.1387-.24264-.188-.34658-.1387-.33665-.089-.88616.1238-1.29696.173-.34658.4503-.57929.767-.64351.1287-.02483.2525-.03973.3912-.03973.6929 0 1.5589.34659 2.3806.95038 1.0245.75242 1.5887 1.43565 1.7667 2.11392.1139.38631.01.84641-.2326 1.20291l-.0003.0004Z">
                                        </path>
                                        <path
                                          fill="currentColor"
                                          d="M70.6407 7.86693c-.9305-.69316-1.8756-.97519-2.4845-.84642-.6039.12876-.7819 1.06424-.6284 1.42572.0351.0758.093.17246.1684.28236.0421-.02747.0848-.05528.1284-.08441-.0791-.20291-.1039-.48528.1238-.71799.3415-.34658 1.0986-.14366 2.1824.58923.3812.26746.7571.56439 1.0344.83186.3912.37638.5791.68322.5791.92592.01.2575-.1039.3959-.2028.4753-.1387.1188-.3117.1437-.4653.1437-.0642 0-.1287 0-.178-.0149-.0133.0304-.0262.0612-.0391.092 1.1112.2817 1.561-.6008 1.4097-1.19103-.1634-.60412-.6929-1.21784-1.6281-1.911v-.00034Zm-6.4985 1.37135c-3.8948 0-7.0475 3.20792-7.0475 7.16872 0 3.9607 3.1527 7.1686 7.0475 7.1686 3.8949 0 7.0476-3.2079 7.0476-7.1686 0-3.9608-3.1527-7.16872-7.0476-7.16872Zm4.0435 3.82202c.2674 0 .4802.2178.4802.4853 0 .2674-.2178.4853-.4802.4853s-.4802-.2179-.4802-.4853c0-.2675.2128-.4853.4802-.4853Zm-1.8508-2.193c.6234 0 1.1334.5147 1.1334 1.1536 0 .6389-.505 1.1536-1.1334 1.1536s-1.1334-.5147-1.1334-1.1536c0-.6389.5047-1.1536 1.1334-1.1536Zm-2.1923 12.2876c-3.6593 0-6.6521-3.0011-6.7047-6.7129-.0007-.0132-.0013-.0268-.0013-.04 0-.0053.0003-.0099.0006-.0152 0-.0149-.0006-.0295-.0006-.0441h.0019c.0451-.8596 1.0739-.8318 2.9078-.6186.8462.1039 2.0044.1681 3.291-.2179 1.4897-.4604 2.7863-.5892 4.0729-.4852 1.7274.1492 3.0378.5792 3.1096 1.3217h.0132c0 3.7575-2.9991 6.8122-6.6911 6.8122h.0007ZM21.3678 54.1546c0-3.6411-1.8275-6.8545-4.6144-8.7744-1.5282-.8489-3.2867-1.3328-5.1585-1.3328-5.87843 0-10.643728 4.7668-10.643728 10.6472 0 3.641 1.827528 6.8545 4.614378 8.7744 1.52821.8489 3.28676 1.3328 5.15855 1.3328 5.8784 0 10.6437-4.7669 10.6437-10.6472Zm-18.5467.54c0-2.3444.91249-4.5485 2.5698-6.206 1.6573-1.6579 3.86038-2.5707 6.204-2.5707 2.3435 0 4.5469.9128 6.2039 2.5707 1.6573 1.6575 2.5698 3.8616 2.5698 6.206 0 2.3443-.9125 4.5484-2.5698 6.206-1.657 1.6578-3.8604 2.5706-6.2039 2.5706-2.34362 0-4.54702-.9128-6.204-2.5706-1.65699-1.6576-2.5698-3.8617-2.5698-6.206Z">
                                        </path>
                                        <path
                                          fill="currentColor"
                                          d="M18.1193 46.2822c.0813.0766.162.1542.2414.2336.9919.9922 1.7706 2.1475 2.3145 3.4338.5632 1.3318.8489 2.7466.8489 4.205 0 1.4585-.2857 2.8733-.8489 4.2051-.5439 1.2866-1.3226 2.4418-2.3145 3.4338-.9919.9922-2.1467 1.7711-3.4326 2.3152-1.3314.5634-2.7457.8492-4.2037.8492-1.29532 0-2.5565-.226-3.75565-.6716 1.3988.6763 2.96815 1.0558 4.62605 1.0558 5.8784 0 10.6437-4.7669 10.6437-10.6472 0-3.4208-1.613-6.4646-4.1195-8.4124l.0003-.0003Zm-7.9478 10.8389c-.1586-.7084-.24809-1.4927-.2617-2.3096-.63849.3824-1.22035.7859-1.71742 1.1907.39234.2855.81884.5495 1.27193.7853.23413.1215.47017.2329.70679.3339l.0004-.0003Z">
                                        </path>
                                        <path
                                          fill="currentColor"
                                          d="M13.7432 58.3074c-.0807.0063-.1626.0111-.2462.0143-.0712.0025-.143.0038-.2154.0038-.6657 0-1.3764-.1058-2.0978-.3083-.0265-.0076-.055-.0054-.0803.0054-.0041.0019-.0083.0034-.0124.0053-.0591.0257-.0873.094-.0626.1535v.001c.386.9391.9068 1.4831 1.4288 1.4923.4803.0089.9761-.4355 1.3786-1.2274.0342-.0668-.018-.1459-.0927-.1399Zm-2.2437 1.4886c-.3604-.3051-.6809-.7849-.9416-1.4198 0-.0003 0-.0007-.0003-.001-.0247-.0598-.0918-.0895-.1522-.0668-.67268.257-1.31497.4476-1.89303.559-.27179.0522-.52238.0858-.75114.1006-.01265.0007-.02688.0016-.04207.0023-.07372.0034-.09999.0993-.03798.1392.89985.5795 1.94777.8903 3.04382.8903.2452 0 .4878-.0158.7274-.0465.0775-.0098.1069-.107.0474-.1576l-.0003.0003Zm-1.57581-1.8518c.00633-.0022.01235-.0044.01867-.0067.05-.018.10034-.036.15064-.0547.0114-.0041.0231-.0086.0345-.013.0414-.0155.0832-.0313.1249-.0475.0174-.0066.0352-.0136.0526-.0202.0139-.0054.0281-.0108.042-.0165.2494-.0978.5028-.2051.7588-.3209h.0006c.0237-.0108.0471-.0215.0709-.0323.0047-.0022.0095-.0044.0142-.0066.3088-.1418.6208-.2957.9331-.4612.9495-.5032 1.8133-1.0653 2.5119-1.63.0262-.2934.0424-.5931.0477-.897.0086-.4804-.0098-.9517-.0534-1.404-.0032-.0031-.0064-.0063-.0095-.0095.0022-.0016.0047-.0028.0069-.0041-.0262-.2696-.062-.5323-.1059-.7865.0006.0006.0009.001.0015.0016-.1034-.5957-.2547-1.1439-.4499-1.6192-.3857-.9391-.9062-1.4829-1.4285-1.4924h-.014c-.4426 0-.897.383-1.2792 1.0667-.0414.074-.0072.168.0719.1981.3708.1418.741.3076 1.1055.4972.541.2814 1.0466.602 1.5054.9514.1278.0975.2145.239.2427.3976.0224.1259.0427.2544.0607.3848.0256.1868-.0927.3624-.2759.4067-.9792.2371-2.1199.6859-3.2627 1.286h-.0006c-.0636.0339-.1396-.0139-.137-.0855.0038-.1142.0091-.2582.0133-.3298.0034-.0598.0382-.1133.0917-.1405 1.1542-.5887 2.3021-1.0252 3.2896-1.2515-.5176-.4342-1.1121-.8298-1.7617-1.1675-.3357-.1744-.6755-.3276-1.0156-.4593-.0127-.005-.0253-.0098-.038-.0145-.0133-.0051-.0263-.0102-.0396-.0152-.042-.0159-.0841-.0314-.1262-.0466-.0038-.0012-.0076-.0028-.0114-.0041-.1617-.0582-.323-.1114-.4841-.1595-.0117-.0035-.0234-.0066-.0354-.0104-.0152-.0045-.0304-.0092-.0459-.0136-.69639-.201-1.3814-.3061-2.01958-.3061-.06676 0-.13319.0013-.199.0035-1.04033.0364-1.82468.3598-2.24644.9182-.05063.0756-.09936.1522-.14618.2297-.00095.0016-.0019.0032-.00285.0051-.36671.7036-.21357 1.637.43157 2.6276.32811.5042.76252.99 1.27825 1.4376.10378.0899.25692.0933.36418.0076.51478-.4112 1.11056-.8188 1.75918-1.2034.1196-.0709.19522-.1975.20155-.3364.04904-1.0958.23222-2.1314.52962-3.004.0247-.0724.1029-.112.176-.0892.0724.0228.1445.0462.217.0712.0744.0253.1139.106.0886.1804-.2743.8036-.4464 1.7591-.499 2.7757-.0076.1425-.0126.2859-.0152.4305-.0009.0529-.0012.1057-.0015.1582v.0175c0 .0145-.0007.0395-.0004.0541.001.0459.0007.0924.001.1383v.0304h.0003c.0111.8425.1054 1.6467.2753 2.3614.0016.007.0044.0187.0082.0336.0297.1177-.031.2399-.143.2864-.1028.043-.2053.0845-.3069.1244-.1225.0481-.25914.044-.37906-.0101-.21547-.0972-.42619-.2045-.64229-.3165-.48757-.2536-.94572-.5391-1.36748-.8486-.20819-.1529-.40753-.3111-.59642-.4748-.55338-.4798-1.02038-1.0026-1.37444-1.5464-.26292-.4042-.4534-.8036-.57047-1.1897-.01708-.0567-.09871-.0529-.11105.005-.081.3827-.12245.7764-.12245 1.1768 0 1.1195.32431 2.1893.928 3.1021.05727.0864.18763.0762.23097-.0181.15251-.3326.42461-.7023.81378-1.1014.00348-.0035.01487-.0152.03038-.0304.07024-.0706.18256-.0763.26008-.0136.03069.0247.0617.0497.09302.074.09081.0716.0984.2064.01708.2884h-.00031c-.77803.7878-.93117 1.3059-.81283 1.5296.12023.227.64799.3925 1.76899.1767.46384-.0893.97293-.2333 1.50733-.4235l.00126-.0016Zm4.62061-7.5216c.2035.4956.362 1.0634.4718 1.6784.0247.1377.1462.2358.2857.2333.2015-.0035.3838.0094.5458.0386.074.0133.1332-.0599.105-.1295-.2797-.6915-.6983-1.3265-1.2415-1.8699-.0348-.0348-.0696-.069-.1051-.1025-.0474-.0453-.1227.0072-.0968.0674.012.0275.0237.0557.0351.0839v.0003Zm.6403 4.3024c-.0019.0507.0592.0776.0956.0424.0294-.0285.0582-.0566.0867-.0848.0775-.0775.149-.1522.2148-.2247.0414-.0456.0487-.1127.0183-.1659-.0487-.0857-.1015-.1721-.1578-.2589-.0424-.0652-.087-.1304-.1329-.1949-.0374-.0526-.1203-.025-.1187.0395.0048.188.0057.3776.0022.5688-.0015.0934-.0044.1861-.0079.2785h-.0003Z">
                                        </path>
                                        <path
                                          fill="currentColor"
                                          d="M7.50114 49.8828c.2392-.044.49391-.0716.76285-.0807.72898-.0257 1.51839.0807 2.32051.3066.1186.0336.2439-.0193.3028-.1275.242-.4431.5157-.7846.8099-1.0157.0649-.0509.0377-.1547-.0436-.1683-.3038-.0501-.6138-.076-.928-.076-1.19 0-2.32367.3668-3.27255 1.0464-.05569.0398-.0193.1275.04809.1152Zm7.86256 2.9588h-.0019c-.0804 0-.1241.095-.0709.1554.2161.2463.4097.4998.5777.7581.0073.0113.0146.0224.0219.0338.0465.0731.1544.0697.1965-.0063.174-.314.1946-.5368.1272-.664-.0807-.1523-.3456-.2773-.8505-.2773v.0003Z">
                                        </path>
                                        <path
                                          fill="currentColor"
                                          d="M10.7247 43.5073c-5.87834 0-10.6436453 4.7669-10.6436453 10.6472 0 5.8804 4.7653053 10.6472 10.6436453 10.6472 5.8784 0 10.6437-4.7668 10.6437-10.6472 0-5.8803-4.7653-10.6472-10.6437-10.6472Zm5.7256 13.0967c-.0278.0797-.0601.1579-.0971.2342-.3031.6887-.7347 1.322-1.2827 1.8699-1.1609 1.1612-2.7043 1.8009-4.3458 1.8009-1.64143 0-3.18515-.6397-4.34571-1.8009C5.21812 57.5468 4.579 56.0029 4.579 54.3609c0-1.1318.30374-2.2168.87231-3.1622.05189-.0959.11011-.1874.17528-.2741.21895-.3235.47017-.6286.7524-.9112 1.16087-1.1613 2.70428-1.8006 4.34571-1.8006 1.6415 0 3.1852.6393 4.3458 1.8006.8533.8536 1.4244 1.9142 1.6674 3.0688.0013.0054.0022.0108.0035.0158.0854.4109.1294.8334.1294 1.2629 0 .7802-.1446 1.5379-.4205 2.2434v-.0003Z">
                                        </path>
                                        <path
                                          fill="currentColor"
                                          d="M14.427 56.1349c-.6132.446-1.3134.8811-2.0642 1.279-.1069.0566-.2142.112-.3211.1662-.0541.0275-.0427.1082.0171.1193.4904.0902.9681.1294 1.4196.1136.1851-.0066.362-.0221.5303-.0465.0779-.0114.1424-.0659.1674-.1402.1478-.4368.2655-.9182.3506-1.4294.0095-.056-.0541-.0955-.1-.062h.0003Zm1.875-1.7504c-.0092.0121-.0168.0223-.0207.027-.0184.0245-.0216.0569-.0095.0849.0067.0152.0134.0305.0197.0458.015.0352.0671.0251.0683-.0131.0016-.0483.0026-.089.0026-.1363 0-.0359-.0356-.0407-.0604-.0083Zm-1.5266 3.7277c-.076.0244-.1538.0468-.2339.0671-.0193.0051-.0351.0187-.0427.037-.0316.0779-.0642.1542-.0981.2289-.0079.0177-.0161.0354-.0243.0531-.0288.0618.0481.1181.0987.0728.0804-.0718.1592-.1459.2357-.2228.044-.044.0873-.0889.1297-.1342.0443-.0471-.0041-.1218-.0654-.1019h.0003Zm.9533-3.0713-.0016.0015c-.1472.1472-.3072.2953-.4787.4435-.0801.0693-.132.1655-.1446.2706-.0681.5633-.1728 1.1008-.3111 1.5964-.0278.0994.0744.1852.1681.1412.4167-.1963.7286-.4779.9147-.8359.0047-.0092.0091-.0187.0139-.0282.0297-.0677.0582-.1364.0851-.2054.1332-.3928.1253-.8435-.0202-1.3271-.0295-.0981-.1532-.1291-.2256-.057v.0004Z">
                                        </path>
                                        <g fill="currentColor"
                                          clip-path="url(#a-18239012381093)">
                                          <path
                                            d="M40.0202 73.4901c.0903.0863.1802.1738.2685.2635 1.1028 1.1195 1.9689 2.4236 2.5738 3.8751.6264 1.5032.9437 3.1001.9437 4.7458 0 1.6456-.3177 3.2425-.9437 4.7457-.6049 1.4519-1.471 2.7556-2.5738 3.8752-1.1028 1.1195-2.3874 1.9987-3.8173 2.6127-1.4807.636-3.0537.9581-4.6748.9581-1.4404 0-2.843-.2552-4.1765-.7582 1.5556.7636 3.3011 1.1914 5.1447 1.1914 6.5371 0 11.8367-5.38 11.8367-12.0162 0-3.8608-1.7939-7.2958-4.5813-9.4939v.0008Z">
                                          </path>
                                          <path
                                            d="M32.1671 74.8592c-4.3546-.0773-7.6366 3.4032-7.7322 7.5013-.105 4.4802 3.4361 7.961 7.646 7.9276 4.1386-.033 7.5089-3.4015 7.537-7.6934-.0224-4.3179-3.3768-7.6633-7.4504-7.7355h-.0004Zm6.2532 6.7642c.216.1177.2725.3944.1074.5782-.0704.0784-.1672.1395-.2628.1866-.9743.4799-1.951.9552-2.9269 1.4322-.1643.0805-.3246.1713-.4922.2432-.1236.0533-.1786.1297-.1676.2676.0187.2325.0273.4658.0403.6987.0248.4315.0537.8627.0736 1.2942.0313.6789.0594 1.3582.081 2.0375.0024.0826-.024.1818-.0712.2474-.1452.2015-.3812.216-.565.0376-.1815-.1755-.3527-.3618-.5264-.5451-.1127-.1189-.2193-.2437-.3324-.3618-.4674-.4885-.9376-.9741-1.4042-1.4635-.1696-.178-.3352-.3597-.4955-.5459-.085-.0991-.1655-.1045-.2835-.0574-1.1764.4699-2.3557.9341-3.5338 1.3995-.0504.0198-.1029.0351-.1525.0562-.1717.0731-.3226.0326-.4434-.1-.1241-.1358-.1302-.2994-.0509-.4604.0969-.1966.2022-.3886.3051-.5819.3438-.6467.6883-1.2925 1.032-1.9392.1766-.3325.3519-.6657.5277-.999.0284-.0541.0541-.109.089-.18-.3225-.4027-.6337-.7913-.9445-1.1803-.3409-.4261-.6814-.8531-1.0227-1.2793-.2005-.2503-.4023-.4997-.6045-.7487-.1208-.1487-.1558-.3419-.083-.4765.0895-.1648.2645-.2379.4715-.1999 1.0304.1887 2.0608.377 3.0908.5653.2457.045.4918.0884.7375.1346.1867.0351.1875.0372.2933-.1288.3669-.5773.7326-1.1555 1.0991-1.7332.3263-.5141.6529-1.0278.9796-1.5416.0293-.0458.0573-.0937.0923-.135.0952-.1119.2168-.1722.3612-.1371.1461.0355.2592.1276.2966.2808.0358.1458.0569.2957.0769.4448.0606.4551.1143.911.1761 1.3656.0618.4543.1322.9073.1949 1.3615.0345.2511.0634.5026.0907.7545.0305.2841.0305.2903.2929.3605.77.2069 1.5405.4113 2.3105.6174.4638.1239.9275.2486 1.3908.3741.0521.0141.1054.0298.1522.0554v.0012Z">
                                          </path>
                                          <path
                                            d="M31.7967 70.3584c-6.5371 0-11.8367 5.3796-11.8367 12.0162 0 6.6367 5.2996 12.0163 11.8367 12.0163 6.5371 0 11.8367-5.38 11.8367-12.0163 0-6.6362-5.2996-12.0162-11.8367-12.0162Zm8.3619 12.7914c-.0268.2102-.0492.4208-.0817.6297-.1314.8466-.3784 1.6572-.7498 2.4274-.3079.6384-.6992 1.2195-1.1548 1.7608-.3181.3779-.6668.7207-1.0471 1.0295-.578.4696-1.2012.866-1.8895 1.1534-.7107.297-1.4401.5171-2.2069.6001-.1867.0202-.3722.0528-.5585.0801h-.9356c-.0582-.0141-.1159-.0326-.1749-.0413-.3478-.0504-.6997-.0785-1.043-.1507-.6582-.1384-1.2916-.3593-1.8952-.662-.609-.3052-1.1732-.6777-1.6898-1.1282-.3759-.3283-.7237-.6822-1.0353-1.0716-.4882-.6104-.8876-1.2769-1.1834-2.0054-.2766-.6805-.4722-1.383-.5585-2.1156-.0215-.1825-.0447-.365-.0675-.5475v-1.0737c.0256-.2238.0423-.4489.0777-.6711.1411-.8866.3982-1.7365.8034-2.5368.2982-.5889.6602-1.1331 1.0886-1.6345.3339-.391.6956-.7503 1.0946-1.0704.5817-.4666 1.2094-.8564 1.8965-1.1455.8123-.3415 1.6519-.5657 2.5314-.6277.0525-.0037.1038-.0239.1554-.0367h.9763c.0521.0119.1033.0293.1558.0351.181.019.3645.0239.5439.0528.8677.1384 1.7004.3932 2.4846.7978.5801.2994 1.1207.66 1.6158 1.0931.3755.3288.7241.6823 1.0353 1.0717.4881.6107.8876 1.2773 1.1845 2.0053.2779.6814.4723 1.3851.559 2.1185.0199.1693.0455.3382.0687.5071v1.1563Z">
                                          </path>
                                        </g>
                                        <path
                                          fill="currentColor"
                                          d="M36.1057 19.6508c0-4.109-2.0321-7.7358-5.1316-9.90263-1.6995-.95773-3.6551-1.50403-5.737-1.50403-6.537 0-11.8367 5.37966-11.8367 12.01606 0 4.1091 2.0321 7.7359 5.1316 9.9027 1.6994.9577 3.6551 1.504 5.737 1.504 6.5373 0 11.8367-5.3796 11.8367-12.0161Zm-20.6257.6094c0-2.6455 1.0148-5.133 2.8579-7.0037 1.8428-1.8707 4.2931-2.9012 6.8992-2.9012 2.6061 0 5.0564 1.0302 6.8992 2.9012 1.8428 1.8707 2.8579 4.3582 2.8579 7.0037 0 2.6456-1.0148 5.1331-2.8579 7.0038-1.8428 1.8707-4.2931 2.9012-6.8992 2.9012-2.6061 0-5.0564-1.0302-6.8992-2.9012-1.8428-1.8707-2.8579-4.3582-2.8579-7.0038Z">
                                        </path>
                                        <path
                                          fill="currentColor"
                                          d="M32.494 10.7659c.0904.0866.1804.1739.2686.2634 1.1029 1.1196 1.969 2.4234 2.5737 3.8753.6263 1.503.9438 3.0998.9438 4.7458s-.3175 3.2424-.9438 4.7458c-.605 1.4518-1.4708 2.7556-2.5737 3.8753-1.1029 1.1196-2.3873 1.9988-3.8175 2.6127-1.4806.6358-3.0535.958-4.6749.958-1.4407 0-2.843-.2552-4.1764-.7581 1.5557.7633 3.3008 1.1915 5.1445 1.1915 6.5374 0 11.8368-5.3797 11.8368-12.0161 0-3.8605-1.794-7.2955-4.5811-9.4939v.0003Z">
                                        </path>
                                        <path
                                          fill="currentColor"
                                          d="M30.9353 13.9543c-.314-.5511-.9609-.7893-1.5691-.6178-.5769.1629-.9929.7128-1.0006 1.3804-.0133 1.1171-.0034 2.2345-.0031 3.3519 0 1.0627.0209 2.1263-.0118 3.188-.0107.3538-.0929.7398-.2578 1.0472-.4043.7546-1.2757 1.0959-2.0685.885-.8585-.2279-1.4188-.9564-1.4283-1.8942-.0114-1.1171.0127-2.2348-.0089-3.3515-.0143-.7398-.6025-1.3125-1.3141-1.3415-.7221-.0293-1.4134.5267-1.4245 1.2674-.0213 1.4149-.0714 2.8423.0789 4.2436.2426 2.2609 2.3692 4.0044 4.6242 3.9478 2.3699-.0596 4.4245-1.8646 4.538-4.1857.1176-2.4057.0596-4.8208.0596-7.2317 0-.2311-.0967-.4845-.2134-.6895l-.0006.0006Z">
                                        </path>
                                        <path
                                          fill="currentColor"
                                          d="M23.219 16.1107c1.0985.0045 1.8897.8347 1.8951 1.9949.0051 1.0897-.0025 2.1798.0082 3.2695.0076.7501.5905 1.3369 1.3313 1.3656.6954.027 1.3975-.5335 1.4074-1.2407.0203-1.4278.0796-2.8696-.0784-4.2822-.2518-2.2551-2.3688-3.9912-4.5918-3.9352-2.4228.0611-4.4206 1.8691-4.5786 4.2352-.0815 1.2201-.0142 2.4501-.0142 3.6757h-.0286c0 1.1171-.0082 2.2342.0026 3.3512.0088.9381.6421 1.5652 1.4806 1.4915.7728-.0683 1.2684-.6464 1.2719-1.5079.0086-2.1524.0045-4.3047.0162-6.4571.0064-1.1419.8058-1.9647 1.8783-1.9602v-.0003Z">
                                        </path>
                                        <path
                                          fill="currentColor"
                                          d="M24.2703 7.63477c-6.5374 0-11.8367 5.37963-11.8367 12.01613 0 6.6364 5.2993 12.0161 11.8367 12.0161 6.5374 0 11.8367-5.3797 11.8367-12.0161 0-6.6365-5.2996-12.01613-11.8367-12.01613Zm7.3562 14.00553c-.0653 2.2818-1.7007 4.2111-3.905 4.7822-2.1431.555-4.4355-.3856-5.6165-2.3046-.0634-.103-.1252-.207-.2692-.3078 0 .2566.001.5132 0 .7701-.0048 1.1534-.8067 2.002-1.8929 2.0036-1.074.0019-1.8941-.8576-1.8957-2.0046-.0035-2.1662-.0006-4.3325.0035-6.4987.0044-2.3809 1.5111-4.4483 3.6954-5.0783 2.3038-.6645 4.6232.2456 5.8895 2.3111.0488.0798.0995.1587.1493.2382.0327-.0032.0657-.0064.0983-.0093 0-.2936-.0054-.5872.001-.8805.0228-1.035.8445-1.8681 1.8516-1.8826.9996-.0145 1.891.8051 1.9008 1.8324.0229 2.3429.0568 4.6881-.0101 7.0295v-.0007Z">
                                        </path>
                                        <g fill="currentColor"
                                          clip-path="url(#b-18239012381093)">
                                          <path
                                            d="M85.389 40.1012c.073.0688.1457.1385.217.2098.8913.8913 1.5912 1.9295 2.0801 3.0852.5063 1.1967.7628 2.468.7628 3.7782 0 1.3101-.2568 2.5814-.7628 3.7782-.4889 1.1559-1.1888 2.1938-2.0801 3.0851-.8913.8913-1.9295 1.5912-3.0852 2.0801-1.1967.5063-2.468.7628-3.7782.7628-1.1641 0-2.2977-.2032-3.3754-.6037 1.2572.6079 2.6679.9485 4.1579.9485 5.2833 0 9.5665-4.2831 9.5665-9.5664 0-3.0737-1.4499-5.8084-3.7026-7.5584v.0006Z">
                                          </path>
                                          <path
                                            d="M80.7428 47.1152c-.2693 0-.4797.1306-.5563.3913h1.0741c-.0319-.2611-.2301-.3913-.5178-.3913Zm2.3129.0494c-.3551 0-.5655.2564-.5655.57 0 .3137.2259.5744.5652.5744.3393 0 .5658-.2611.5658-.5744s-.2104-.57-.5655-.57Zm-8.1943-1.2636v-.0157h-.6664l-1.0803 1.1694v-1.1694h-.5366v2.7659h.5366v-1.2247l1.1901 1.2247h.6622v-.0319l-1.369-1.395 1.2634-1.3233Z">
                                          </path>
                                          <path
                                            d="M78.7423 37.6084c-5.2833 0-9.5665 4.2832-9.5665 9.5665s4.2832 9.5665 9.5665 9.5665 9.5664-4.2832 9.5664-9.5665-4.2831-9.5665-9.5664-9.5665Zm-2.5158 11.067c0 .6628-.5372 1.2-1.2 1.2h-2.8803c-.6628 0-1.2-.5372-1.2-1.2v-2.88c0-.6628.5372-1.2 1.2-1.2h2.88c.6628 0 1.2.5372 1.2 1.2v2.88h.0003Zm3.624.0608h-.6588l-1.1826-1.2625v1.2625h-.5332v-2.8511h.5322v1.2056l1.0741-1.2056h.6625v.0161l-1.2546 1.3648 1.3608 1.4377v.0328l-.0004-.0003Zm1.8822-.818h-1.5531c.0319.2486.2423.4278.5931.4278.1818 0 .4156-.0697.533-.1881l.3153.3136c-.2137.2157-.5491.3258-.8558.3258-.6868 0-1.0945-.4316-1.0952-1.0707 0-.6116.4113-1.0511 1.0577-1.0511.6095 0 1.0136.3544 1.0136 1.0547 0 .0618-.0043.1229-.0086.188Zm1.3766.8749c-.2144 0-.5178-.0694-.6625-.293v1.1557h-.4935v-2.9277h.4616l.0326.2771c.1571-.2281.4198-.3222.6457-.3222.6138 0 1.0215.4643 1.0215 1.0511 0 .5869-.3673 1.0593-1.0051 1.0593l-.0003-.0003Zm1.7379-.0569h-.4893v-2.8471h.4893v2.8471Zm1.3541-1.5686c-.258 0-.4964.1342-.4964.5103v1.0586l-.4928-.0019v-2.0075h.4566l.0365.2318c.1453-.2443.3551-.2808.5612-.2808.2062 0 .4041.0858.5129.1881l-.2222.4323c-.101-.0766-.1933-.1305-.3551-.1305l-.0007-.0004Z">
                                          </path>
                                        </g>
                                        <defs>
                                          <clipPath
                                            id="a-18239012381093">
                                            <rect
                                              width="24.6416"
                                              height="24.6416"
                                              fill="#fff"
                                              transform="translate(19.96 70.3584)">
                                            </rect>
                                          </clipPath>
                                          <clipPath
                                            id="b-18239012381093">
                                            <rect
                                              width="19.9154"
                                              height="19.6179"
                                              fill="#fff"
                                              transform="translate(69.1758 37.6084)">
                                            </rect>
                                          </clipPath>
                                        </defs>
                                      </svg>