
<svg
                                          xmlns="http://www.w3.org/2000/svg"
                                          fill="none"
                                          viewBox="0 0 101 49">
                                          <path
                                            fill="currentColor"
                                            d="M15.8416 40.1562c0-2.6657-1.3379-5.0183-3.3782-6.4237-1.1188-.6213-2.4061-.9757-3.77672-.9757-4.30343 0-7.792149 3.4899-7.792149 7.7948 0 2.6656 1.337839 5.0182 3.378169 6.4236 1.11885.6214 2.40616.9757 3.77673.9757 4.30347 0 7.79217-3.4899 7.79217-7.7947Zm-13.57792.3954c0-1.7164.66809-3.33 1.88138-4.5434 1.21328-1.2137 2.82608-1.882 4.54185-1.882 1.71579 0 3.32879.6683 4.54189 1.882 1.2133 1.2137 1.8813 2.827 1.8813 4.5434 0 1.7163-.668 3.3299-1.8813 4.5433-1.2133 1.2137-2.8261 1.882-4.54189 1.882-1.71577 0-3.32881-.6683-4.54185-1.882-1.21329-1.2137-1.88138-2.827-1.88138-4.5433Z">
                                          </path>
                                          <path
                                            fill="currentColor"
                                            d="M13.4623 34.3931c.0595.056.1186.1127.1767.1708.726.7263 1.2961 1.5721 1.6944 2.514.4124.9752.6214 2.0109.6214 3.0786 0 1.0677-.209 2.1034-.6214 3.0786-.3981.9417-.9682 1.7875-1.6944 2.514-.726.7262-1.5715 1.2965-2.5131 1.695-.9749.4124-2.01024.6215-3.07761.6215-.94828 0-1.87141-.1654-2.74946-.4917 1.02419.4953 2.17295.773 3.38694.773 4.30343 0 7.79213-3.4899 7.79213-7.7948 0-2.5042-1.181-4.7325-3.0159-6.1586l.0003-.0004Z">
                                          </path>
                                          <path
                                            fill="currentColor"
                                            d="M8.04899 32.3613c-4.30343 0-7.792154 3.4899-7.792154 7.7947 0 4.3049 3.488724 7.7948 7.792154 7.7948 4.30341 0 7.79211-3.4899 7.79211-7.7948 0-4.3048-3.4887-7.7947-7.79211-7.7947Zm0 3.1239 2.87021 4.7636-2.87021 1.6983-2.87022-1.6983 2.87022-4.7636Zm0 9.3419-2.87022-4.0329 2.87022 1.6938 2.87021-1.6938-2.87021 4.0329Z">
                                          </path>
                                          <path
                                            fill="currentColor"
                                            fill-rule="evenodd"
                                            d="M50.5753 27.2867c-11.5849 0-21.0523 9.5168-21.0523 21.3509h-7.4654c0-15.8725 12.7258-28.8163 28.5177-28.8163 15.7919 0 28.5177 12.9438 28.5177 28.8163h-7.4654c0-11.8341-9.4674-21.3509-21.0523-21.3509Z"
                                            clip-rule="evenodd">
                                          </path>
                                          <path
                                            fill="currentColor"
                                            d="M71.9504 9.59761c0-2.53584-1.273-4.77435-3.2141-6.11148-1.0644-.59132-2.2893-.92851-3.5933-.92851-4.0942 0-7.4135 3.32039-7.4135 7.41594 0 2.53584 1.273 4.77434 3.2141 6.11144 1.0644.5914 2.2893.9286 3.5933.9286 4.0942 0 7.4135-3.3204 7.4135-7.41599Zm-12.918.37595c0-1.6328.6354-3.16813 1.79-4.32255 1.1541-1.15441 2.6889-1.79059 4.3211-1.79059 1.6323 0 3.1671.63562 4.3212 1.79059 1.154 1.15442 1.79 2.68975 1.79 4.32255 0 1.63274-.6354 3.16814-1.79 4.32254-1.1541 1.1544-2.6889 1.7906-4.3212 1.7906-1.6322 0-3.167-.6356-4.3211-1.7906-1.154-1.1544-1.79-2.6898-1.79-4.32254Z">
                                          </path>
                                          <path
                                            fill="currentColor"
                                            d="M69.6875 4.11475c.0565.05315.1129.10741.1683.16277.6907.69099 1.2332 1.49548 1.6118 2.39188.3924.92796.5911 1.91295.5911 2.92895 0 1.01595-.1987 2.00095-.5911 2.92895-.3786.8959-.9211 1.7009-1.6118 2.3919-.6908.691-1.495 1.2336-2.3911 1.6123-.9277.3925-1.9123.5913-2.928.5913-.9022 0-1.7806-.1572-2.6158-.4678.9741.4711 2.0673.7352 3.2224.7352 4.0942 0 7.4135-3.3204 7.4135-7.41591 0-2.38247-1.1236-4.50248-2.8693-5.85954Z">
                                          </path>
                                          <path
                                            fill="currentColor"
                                            d="M64.5356 2.18164c-4.0942 0-7.4135 3.32039-7.4135 7.41594 0 4.09552 3.3193 7.41592 7.4135 7.41592s7.4135-3.3204 7.4135-7.41592c0-4.09555-3.3193-7.41594-7.4135-7.41594Zm4.3211 9.61676c0 .2032-.1129.3837-.2707.474l-1.8276 1.0608c-.1804.0903-.3836.0903-.5413 0l-1.8277-1.0608c-.1804-.113-.2706-.2935-.2706-.474v-.7447l.8573-.4966v.7226c0 .2032.113.3837.2707.4739l.9703.5642c.1804.0902.3835.0902.5413 0l.9476-.5642c.1804-.1129.2706-.2934.2706-.4739v-1.1284c0-.20325-.1129-.38373-.2706-.47398l-.9703-.56421c-.1804-.09025-.3836-.09025-.5413 0l-1.2409.72255-.8574.49664-1.2409.7226c-.1805.0902-.3836.0902-.5414 0l-1.8276-1.06088c-.1804-.11295-.2707-.29345-.2707-.47395V7.39838c0-.1805.0903-.36099.2707-.45124l1.8503-1.08355c.1805-.09025.3836-.09025.5414 0l1.8049 1.06085c.1804.11295.2707.29344.2707.47394v.7674l-.8574.49664v-.74469c0-.2032-.1129-.3837-.2707-.47395l-.9702-.5869c-.1805-.09025-.3836-.09025-.5414 0l-.9702.56421c-.1805.11295-.2707.29343-.2707.47393v1.1284c0 .2032.1129.3837.2707.47395l.9702.58693c.1805.0902.3836.0902.5414 0l1.2409-.74473.8574-.47395 1.2636-.74469c.1804-.09025.3835-.09025.5413 0l1.8276 1.06085c.1805.11295.2707.29344.2707.47394v2.14438-.0017ZM46.2615 2.8505c.0583.05508.1161.11056.1732.16765.7118.71201 1.2704 1.54102 1.6607 2.46369.4039.95565.6089 1.9708.6089 3.01731 0 1.0465-.205 2.06165-.6089 3.01725-.3903.9231-.9489 1.7521-1.6607 2.4637-.7118.7121-1.5405 1.2709-2.4629 1.6613-.9553.404-1.9701.6091-3.0163.6091-.9296 0-1.8343-.1625-2.6948-.4821 1.004.4853 2.1297.7575 3.3194.7575 4.218 0 7.637-3.4206 7.637-7.63959 0-2.45445-1.1575-4.63832-2.956-6.03621l.0004.0004Z">
                                          </path>
                                          <path
                                            fill="currentColor"
                                            d="M48.5919 8.49945c0-2.61245-1.3111-4.91814-3.3109-6.29593-1.0964-.60909-2.3584-.95645-3.7016-.95645-4.218 0-7.637 3.42055-7.637 7.63954 0 2.61249 1.311 4.91819 3.3109 6.29589 1.0964.6091 2.3584.9565 3.7015.9565 4.218 0 7.6371-3.4206 7.6371-7.63955Zm-13.308.38756c0-1.68213.6548-3.26375 1.844-4.45298 1.1892-1.18963 2.7699-1.84455 4.4515-1.84455 1.6816 0 3.2627.65492 4.4515 1.84455 1.1893 1.18963 1.844 2.77085 1.844 4.45298 0 1.68209-.6547 3.26379-1.844 4.45299-1.1892 1.1896-2.7699 1.8446-4.4515 1.8446-1.6816 0-3.2627-.655-4.4515-1.8446-1.1892-1.1896-1.844-2.7709-1.844-4.45299Z">
                                          </path>
                                          <path
                                            fill="currentColor"
                                            d="M40.9554.859375c-4.218 0-7.637 3.420545-7.637 7.639545 0 4.21898 3.4194 7.63958 7.637 7.63958 4.2176 0 7.637-3.4206 7.637-7.63958 0-4.219-3.4194-7.639545-7.637-7.639545ZM39.9064 12.9298c0 .0543 0 .0816-.0273.1085-.0274.109-.1359.1633-.2448.109-1.5216-.4893-2.6903-1.658-3.1795-3.18054-.815-2.5823.5981-5.32782 3.1795-6.14315.0273-.02734.0816-.02734.1089-.02734.1085.02734.1632.10855.1632.2175v.38073c0 .13589-.0543.21751-.1632.27178-1.1141.40767-2.0107 1.27768-2.4182 2.41907-.7882 2.09301.299 4.45825 2.4182 5.21925.0816.0543.1632.1632.1632.2449v.3807-.0004Zm1.6575-1.3862c-.0274.1358-.1089.2175-.2175.2175h-.4075c-.1358-.0274-.2174-.109-.2174-.2175v-.6526c-.8967-.1358-1.3315-.6251-1.4401-1.30457v-.02734c0-.10895.0816-.19016.1901-.19016h.4622c.0816 0 .1632.05427.1901.16323.0816.40766.326.70674 1.0325.70674.5165 0 .8967-.29908.8967-.73408 0-.43501-.2448-.59824-1.0056-.73413-1.1414-.13588-1.6848-.48928-1.6848-1.38622 0-.67945.5165-1.22341 1.3315-1.33196v-.62517c.0274-.13589.109-.2175.2175-.2175h.4075c.1358.02733.2174.10895.2174.2175v.65251c.625.05427 1.1141.51662 1.223 1.11445v.02734c0 .10855-.0816.19016-.1901.19016h-.4348c-.0816 0-.1632-.05427-.1901-.13589-.1359-.40766-.4076-.57089-.8967-.57089-.5434 0-.815.24444-.815.62517s.1631.59823.9782.70678c1.1414.13589 1.7121.46195 1.7121 1.41357 0 .73416-.5434 1.30466-1.3588 1.44086v.6526l-.0004-.0004Zm1.0598 1.631c-.0273.0274-.0816.0274-.1089.0274-.1089-.027-.1632-.1086-.1632-.2175v-.3808c0-.1359.0543-.2175.1632-.2717 1.1141-.4077 2.0107-1.2777 2.4182-2.41911.7882-2.09302-.299-4.45821-2.4182-5.21927-.0816-.05428-.1632-.16323-.1632-.27178v-.38073c0-.05427 0-.08161.0273-.10895.027-.10896.1359-.16323.2448-.10895 1.4947.48928 2.6903 1.658 3.1795 3.20746.815 2.5823-.5981 5.32783-3.1795 6.14313v.0008Zm57.7433 27.1629c0-2.6465-1.3283-4.982-3.354-6.3776-1.1106-.6169-2.389-.9687-3.7495-.9687-4.2725 0-7.7362 3.4649-7.7362 7.7387 0 2.6465 1.3282 4.982 3.3539 6.3776 1.1106.6169 2.389.9687 3.7495.9687 4.2725 0 7.7363-3.4648 7.7363-7.7387Zm-13.4805.3924c0-1.7038.6634-3.3058 1.8679-4.5106 1.2044-1.2048 2.8058-1.8685 4.5091-1.8685s3.3047.6637 4.5092 1.8685c1.2044 1.2048 1.8678 2.8068 1.8678 4.5106 0 1.7039-.6634 3.3058-1.8678 4.5107-1.2045 1.2048-2.8059 1.8684-4.5092 1.8684s-3.3047-.6636-4.5091-1.8684c-1.2045-1.2049-1.8679-2.8068-1.8679-4.5107Z">
                                          </path>
                                          <path
                                            fill="currentColor"
                                            d="M98.0067 34.6155c.0592.0556.1179.1119.1755.1697.7208.721 1.2869 1.5609 1.6821 2.4959.4097.9681.6167 1.9964.6167 3.0563 0 1.0599-.207 2.0883-.6167 3.0563-.3955.935-.9613 1.7747-1.6821 2.4959-.7208.721-1.5603 1.2873-2.495 1.6826-.9678.4095-1.9958.6172-3.0553.6172-.9417 0-1.858-.1644-2.7296-.4883 1.0169.4916 2.1575.7673 3.3626.7673 4.2725 0 7.7361-3.4649 7.7361-7.7388 0-2.4862-1.1724-4.6985-2.994-6.1144l-.0003.0003Z">
                                          </path>
                                          <path
                                            fill="currentColor"
                                            d="M92.6307 32.5986c-4.2725 0-7.7362 3.4647-7.7362 7.7388 0 4.2741 3.4637 7.7387 7.7362 7.7387 4.2725 0 7.7363-3.4649 7.7363-7.7387 0-4.2739-3.4638-7.7388-7.7363-7.7388Zm-3.4041 4.4233c.0516-.0538.1054-.1076.1617-.1617 1.9185-1.8293 4.9568-1.7576 6.7856.1617.119.1258.2333.256.3365.3929l-3.8102 3.8138-3.8103-3.8138c.1054-.1369.2177-.2671.3365-.3929h.0002Zm6.7003 2.7318c0 .2761-.0919.5455-.2603.7632-.4218.5455-1.2049.6465-1.7502.2245l1.7502-1.7507c.1684.2178.2603.4872.2603.7632v-.0002Zm-4.4428.99c-.2177.1684-.487.2604-.763.2604s-.543-.092-.763-.2582c-.5453-.4219-.6462-1.2075-.2244-1.753l1.7502 1.7508h.0002Zm1.2163 4.3971c-2.6523 0-4.8019-2.1503-4.8019-4.8034 0-.8776.24-1.7396.6955-2.4894l.377.3792.3972.3974c-.5475.6553-.5475 1.6071 0 2.2627.6239.7474 1.7368.8463 2.4839.2222l.8483.8486.8505-.8508c.6551.5477 1.6066.5477 2.2619 0 .7472-.6241.8461-1.7373.2222-2.4847l.7742-.7744c.4533.7496.6955 1.6116.6933 2.4894 0 2.6531-2.1496 4.8035-4.8019 4.8035l-.0002-.0003Z">
                                          </path>
                                          <path
                                            fill="currentColor"
                                            d="M95.6541 37.386c-.7853-.7901-1.831-1.2234-2.953-1.2234-1.1221 0-2.1677.4331-2.9531 1.2234l2.9531 2.954 2.953-2.954Z">
                                          </path>
                                          <g fill="currentColor"
                                            clip-path="url(#a-1283912301839">
                                            <path
                                            fill="currenColor"
                                              d="M25.6262 12.8018c.0591.0565.1179.1138.1757.1724.7217.7326 1.2884 1.586 1.6842 2.5359.41.9837.6176 2.0287.6176 3.1055 0 1.0769-.2079 2.1219-.6176 3.1056-.3958.9501-.9625 1.8033-1.6842 2.5359-.7217.7326-1.5623 1.3079-2.498 1.7097-.9689.4162-1.9983.627-3.0591.627-.9426 0-1.8605-.167-2.7331-.4962 1.018.4997 2.1602.7797 3.3666.7797 4.2778 0 7.7458-3.5207 7.7458-7.8633 0-2.5265-1.1739-4.7743-2.9979-6.2127v.0005Zm-8.3193 7.6267c-.0863-.0565-.218-.0308-.218.0462 0 .0205.0101.041.0404.0513.0455.0257.0506.0514.0152.1081-.0354.0565-.0354.1081.0101.144.0711.0565.1672.0257.218-.0667.0557-.0978.0253-.2213-.0657-.2829Z">
                                            </path>
                                            <path fill="currenColor" d="M20.2448 10.7524c-4.2778 0-7.7458 3.5207-7.7458 7.8633 0 4.3427 3.468 7.8633 7.7458 7.8633s7.7459-3.5206 7.7459-7.8633c0-4.3426-3.4681-7.8633-7.7459-7.8633Zm1.8352 5.3293c.0101-.0102.3091.0773.4257.1287.1772.0721.2076.0773.2281.0721.0152-.0154.0253-.0565.0303-.1851.0101-.1954.0354-.324.0913-.4424.0203-.0462.0405-.0875.0456-.0875.005 0-.0051.0359-.0203.0773-.0404.1132-.0455.2726-.0202.4526.0354.2316.0506.2624.2939.5145.1115.1184.2433.2676.2939.3292l.0862.1132-.0862-.0824c-.1065-.103-.3496-.2983-.4055-.324-.0354-.0206-.0404-.0206-.0657.0051-.0202.0206-.0253.0514-.0253.2005-.0051.2316-.0354.3757-.1115.5248-.0405.0773-.0456.0616-.0102-.0256.0253-.0668.0304-.0979.0304-.3189 0-.4475-.0506-.5556-.3599-.7356-.0761-.0462-.2076-.1132-.2838-.1492-.0812-.0359-.1419-.0667-.1368-.0667v-.0006Zm-3.1518-.6637c.0964-.0154.3192.0052.4763.0411.3649.0876.6942.3138 1.0437.7099l.0913.1081.1318-.0205c.5625-.0927 1.1401-.0206 1.6214.2056.1318.0616.3394.1851.365.2162.0101.0103.0252.0773.0354.1441.0354.2418.0202.4218-.0557.5607-.0404.0773-.0404.0978-.0152.1646.0203.0513.0812.0875.1369.0875.1216 0 .2483-.1954.309-.468l.0253-.1081.0455.0513c.2585.2932.4611.6997.4914.9877l.0102.0773-.0456-.0667c-.0761-.1184-.1469-.1954-.2433-.2624-.1722-.1184-.3545-.1543-.8361-.18-.4358-.0257-.6841-.0616-.9274-.144-.4156-.1389-.6283-.3189-1.1199-.9826-.218-.2932-.3546-.4527-.4914-.5864-.299-.2932-.5979-.4475-.9881-.5094-.1065-.0154-.1116-.0205-.0607-.0257l.0002-.0003Zm2.868 3.8531c-.0101-.0773-.0354-.1749-.0505-.216l-.0253-.0773.0455.0565c.0657.0773.1166.1697.1621.2984.0354.0978.0354.1286.0354.288 0 .1595-.005.1903-.0354.2778-.0506.1389-.1115.2368-.2127.3446-.1823.1902-.4206.2932-.76.3394-.0607.0051-.2332.0205-.3852.0308-.3801.0205-.6333.0616-.8614.144-.0303.0103-.0607.0206-.0657.0154-.0101-.0102.1469-.1029.2736-.1645.1773-.0876.3599-.1338.76-.2057.1975-.0308.4004-.0721.451-.0927.5017-.1594.7498-.5556.6689-1.039l-.0003.0003Zm-2.3715-.5916c-.1419 0-.1925-.0205-.2484-.0927-.0354-.0462-.0455-.1954-.0253-.2778.0354-.1337.152-.2675.2737-.3035.0812-.0256.2382-.0102.3141.0309.1469.0772.2534.2469.2281.3704-.0253.1492-.2635.2727-.5422.2727Zm-.5473-2.9218.0101-.1081.0506.0103c.0913.0154.2483.0773.3242.1235.2026.1235.2939.2932.3801.715.0253.1235.0607.2676.0762.3138.0253.0773.1216.2573.2025.3705.0557.0824.0203.1235-.1064.1132-.1925-.0205-.451-.2005-.6181-.4321-.2127-.2983-.3496-.7612-.3192-1.1061Zm-1.6366 6.0957c0-.0513-.0711-.1902-.1874-.3756-.1368-.2108-.1925-.3189-.2433-.4835-.0556-.1851-.0761-.3086-.0658-.5039.0102-.1852.0304-.2676.1015-.4116.0556-.1184.0913-.1697.3191-.4578.3903-.4886.5271-.7766.5777-1.1831.0455-.3653.1065-.5402.2433-.6945.0812-.0927.1014-.1286.1014-.1954 0-.0308-.1267-.2829-.5169-.9877-.4121-.7476-.6114-1.118-.5979-1.1112.005.0052.2939.4527.6333.9929.4458.7047.6436.9979.6891 1.0442.0658.0667.1622.108.2433.108.0709 0 .2181-.041.2889-.0824.1267-.0721.157-.1697.0812-.2726-.0913-.1235-1.9103-2.387-3.0911-3.8428-.0964-.1235-.1773-.2213-.1723-.2213.0152 0 3.3139 3.683 3.5522 3.9608l.0657.0719-.005.1184c-.0051.1594-.0557.2675-.1723.3756-.1317.1286-.2989.1954-.5574.2316-.157.0205-.2127.0462-.2787.1184-.0607.0667-.0862.1543-.1014.3704-.0253.3395-.0657.4784-.2231.8129-.152.324-.1823.4424-.157.6172.0303.2057.1469.36.4206.5505.2076.144.304.2367.3545.3497.0304.0721.0354.0978.0354.2159 0 .1851-.0303.2573-.152.391-.1975.2162-.5574.3911-.9931.4937-.1824.0411-.1925.0411-.1925 0v.0003Zm4.8696 1.2088c-.1268.0667-.2282.0875-.365.0875-.2433 0-.4509-.1286-.6181-.3859-.0354-.0513-.1065-.2005-.1672-.3394-.1773-.4167-.2686-.5402-.4762-.6791-.1824-.1183-.4155-.144-.5928-.0565-.2332.1133-.2939.4167-.1318.6019.0657.0772.1874.1389.2888.1543.1874.0256.3495-.1235.3495-.3138 0-.1235-.0455-.1954-.1671-.2521-.1621-.0722-.3394.0103-.3344.1697 0 .0667.0304.1081.0964.1389.027.0137.0303.0188.0101.0154-.1469-.0308-.1823-.2159-.0658-.3343.1419-.144.4409-.0824.5423.1184.0405.0824.0455.247.0101.3497-.0862.2264-.3293.3445-.5776.2778-.1672-.0462-.2383-.0927-.4409-.3035-.3545-.3705-.4914-.4424-.9982-.5197l-.0964-.0154.1065-.1029c.3751-.3189.8361-.5454 1.2618-.6172.1823-.0309.4863-.0206.6538.0256.2686.0719.5119.2265.6383.4167.1217.1851.1773.3446.2332.6997.0202.1389.0455.2829.0506.3137.0404.1851.1216.3292.2231.4064.157.1184.4307.1235.6993.0206.0455-.0154.0862-.0308.0862-.0257.0101.0103-.1267.103-.218.1492h-.0005Zm1.7177-1.6822c-.1115.4372-.3649.7869-.7347.9877-.0556.0308-.1014.0513-.1065.0513-.005 0 .0152-.0513.0456-.1132.1216-.2624.1368-.5145.0455-.7975-.0557-.1748-.1723-.3859-.4054-.7407-.2787-.4116-.3445-.5196-.4156-.6688-.1317-.2932-.1621-.571-.0913-.8334.0101-.0257.0203-.0514.0304-.0514.0101 0 .0404.0154.071.036.0607.0411.1874.1132.5119.2932.4105.2264.6437.4013.8058.6018.1419.1748.2282.3756.2686.6223.0253.1389.0101.4732-.0253.6121v.0006Zm.304-1.4044c-.0354.1286-.1368.3653-.1621.3704-.0051 0-.0152-.0256-.0152-.0667-.0101-.2162-.1166-.4218-.2938-.5813-.213-.1851-.4864-.324-1.1553-.5967-1.0033-.4115-1.3582-.7663-1.3582-1.3682 0-.0875.0051-.1594.0051-.1594.005 0 .0404.0308.0862.0668.2026.1645.4307.2367 1.064.3291.37.0565.5827.0978.7752.1646.613.2056.9932.6275 1.0845 1.1985.0253.1645.0101.4783-.0304.6429Z">
                                            </path>

                                            <path
                                              d="M19.698 18.0881c-.1369-.0875-.3445-.0154-.3445.1184 0 .0667.1065.1389.2076.1389.0658 0 .1571-.0411.1875-.0824.0404-.0616.0252-.1287-.0506-.1749Z">
                                            </path>
                                          </g>
                                          <g fill="currentColor"
                                            clip-path="url(#b-1283912301839)">
                                            <path
                                              d="M86.8782 17.0449c.0565.0511.1128.1029.1681.1559.6907.6621 1.2331 1.4335 1.6119 2.2921.3923.8891.591 1.8336.591 2.807 0 .9733-.1989 1.9179-.591 2.807-.3788.8588-.9212 1.6299-1.6119 2.2921-.6906.6621-1.4952 1.1822-2.3907 1.5454-.9273.3761-1.9124.5667-2.9277.5667-.9021 0-1.7805-.151-2.6156-.4485.9742.4516 2.0674.7047 3.222.7047 4.094 0 7.413-3.1822 7.413-7.1074 0-2.2836-1.1235-4.3153-2.8691-5.6155v.0005Zm-5.4436 5.4126-1.939-1.3996c-.1059-.0755-.2555-.0542-.3342.0474-.0303.0391-.0469.0867-.0471.1355v2.3476h.4081v-2.0212l1.5989 1.1536v.8676h.4081v-.9492c0-.0716-.0352-.1387-.0948-.1817Z">
                                            </path>
                                            <path
                                              d="m83.9713 21.0585-1.939 1.3991c-.0596.043-.0948.1104-.0948.1817v.9492h.4081v-.8676l1.5989-1.1536v2.0212h.4081V21.241c-.0002-.0486-.0168-.096-.0471-.1349-.0787-.1016-.2283-.1226-.3342-.0473v-.0003Z">
                                            </path>
                                            <path
                                              d="M81.7275 15.1929c-4.094 0-7.413 3.1821-7.413 7.1074 0 3.9252 3.319 7.1073 7.413 7.1073s7.413-3.1821 7.413-7.1073c0-3.9253-3.319-7.1074-7.413-7.1074Zm0 11.4019c-2.4737 0-4.4792-1.9228-4.4792-4.2945 0-2.3718 2.0055-4.2946 4.4792-4.2946 2.4737 0 4.4792 1.9228 4.4792 4.2946 0 2.3717-2.0055 4.2945-4.4792 4.2945Z">
                                            </path>
                                          </g>
                                          <defs>
                                            <clipPath
                                              id="a-1283912301839">
                                              <rect
                                                width="16.1252"
                                                height="16.1252"
                                                fill="#fff"
                                                transform="translate(12.499 10.7524)">
                                              </rect>
                                            </clipPath>
                                            <clipPath
                                              id="b-1283912301839">
                                              <rect
                                                width="15.4324"
                                                height="14.575"
                                                fill="#fff"
                                                transform="translate(74.3145 15.1929)">
                                              </rect>
                                            </clipPath>
                                          </defs>
                                        </svg>
