<svg version="1.1" id="Capa_1" xmlns="http://www.w3.org/2000/svg" xmlns:xlink="http://www.w3.org/1999/xlink" x="0px" y="0px"
	 width="500.919px" height="500.919px" viewBox="0 0 178.919 178.919" style="enable-background:new 0 0 178.919 178.919;"
	 xml:space="preserve">
<g>
	<g>
		<path d="M56.886,80.67l60.204-0.006c4.293,0,7.775-3.489,7.775-7.77V41.818c0-4.284-3.482-7.767-7.775-7.767H83.426v-2.588
			c0-4.293-3.486-7.776-7.77-7.776H61.843c-4.284,0-7.767,3.483-7.767,7.776V76.35l-0.006,0.892
			c-0.013,1.477-0.021,2.296,0.548,2.868C55.142,80.628,55.891,80.67,56.886,80.67z M55.796,31.458c0-3.337,2.712-6.05,6.041-6.05
			H75.65c3.328,0,6.041,2.713,6.041,6.05v4.308h35.394c3.337,0,6.046,2.713,6.046,6.047v31.076c0,3.331-2.709,6.037-6.046,6.037
			h-1.236c0.743-0.63,1.236-1.541,1.236-2.588V45.262c0-1.896-1.553-3.455-3.446-3.455H79.103c-1.9,0-3.453-1.559-3.453-3.453
			v-3.455c0-1.897-1.553-3.447-3.456-3.447H58.39c-1.047,0-1.958,0.49-2.594,1.233V31.458z"/>
		<path d="M56.856,124.5V99.54c0-3.439-2.807-6.24-6.242-6.24H23.579v-2.077c0-3.443-2.807-6.241-6.235-6.241H6.243
			c-3.44,0-6.235,2.798-6.235,6.241v36.054l-0.006,0.719c-0.006,1.188-0.018,1.839,0.451,2.302c0.417,0.427,1.017,0.457,1.82,0.457
			l48.354-0.007C54.058,130.735,56.856,127.935,56.856,124.5z M47.841,99.534H20.104c-1.528,0-2.767-1.248-2.767-2.776v-2.776
			c0-1.522-1.254-2.771-2.777-2.771H3.469c-0.834,0-1.571,0.396-2.083,0.989v-0.989c0-2.677,2.183-4.854,4.856-4.854h11.101
			c2.667,0,4.85,2.183,4.85,4.854v3.464h28.427c2.682,0,4.856,2.181,4.856,4.854v24.959c0,2.674-2.174,4.848-4.856,4.848h-0.993
			c0.594-0.5,0.993-1.236,0.993-2.07v-24.966C50.614,100.776,49.366,99.534,47.841,99.534z"/>
		<path d="M172.678,93.317h-27.023v-2.082c0-3.438-2.802-6.235-6.241-6.235h-11.089c-3.44,0-6.241,2.798-6.241,6.235v36.041v0.707
			c-0.006,1.193-0.013,1.851,0.45,2.308c0.421,0.426,1.018,0.456,1.814,0.456l48.336-0.006c3.435,0,6.235-2.801,6.235-6.235V99.559
			C178.919,96.112,176.112,93.317,172.678,93.317z M177.53,124.5c0,2.667-2.18,4.847-4.853,4.847h-0.992
			c0.597-0.512,0.992-1.242,0.992-2.082v-24.941c0-1.522-1.248-2.771-2.776-2.771h-27.712c-1.528,0-2.776-1.255-2.776-2.776v-2.771
			c0-1.522-1.249-2.771-2.771-2.771H125.56c-0.846,0-1.564,0.398-2.076,0.989v-0.989c0-2.67,2.174-4.854,4.847-4.854h11.089
			c2.673,0,4.853,2.183,4.853,4.854V94.7h28.412c2.673,0,4.854,2.18,4.854,4.853V124.5H177.53z"/>
		<polygon points="142.98,151.427 89.64,151.427 89.64,86.382 85.831,86.382 85.831,151.427 32.487,151.427 32.487,137.421 
			28.678,137.421 28.678,151.427 28.678,155.231 32.487,155.231 85.831,155.231 89.64,155.231 142.98,155.231 146.786,155.231 
			146.786,151.427 146.786,137.421 142.98,137.421 		"/>
	</g>
</g>
</svg>